<svg width="32" height="32" xmlns="http://www.w3.org/2000/svg">
    <g fill-rule="nonzero" fill="none">
        <circle fill="#0AC18E" cx="16" cy="16" r="16"/>
        <path d="M20.99 10.627c-.803-1.823-2.65-2.213-4.913-1.835l-.727-2.818-1.713.442.714 2.81c-.45.114-.913.212-1.372.342l-.715-2.794-1.714.442.727 2.819c-.37.105-3.46.897-3.46.897l.471 1.836s1.26-.354 1.247-.325c.699-.183 1.027.166 1.182.495l1.998 7.724c.024.223-.017.605-.496.735.029.016-1.246.32-1.246.32l.186 2.14s3.062-.783 3.464-.884l.735 2.85 1.714-.442-.735-2.871c.471-.11.93-.224 1.377-.341l.73 2.854 1.714-.442-.735-2.847c2.64-.642 4.504-2.307 4.122-4.853-.243-1.535-1.92-2.794-3.314-2.936.857-.76 1.292-1.868.76-3.318zm-.824 6.721c.342 2.522-3.163 2.83-4.32 3.135l-1.007-3.772c1.161-.305 4.75-1.584 5.327.637zm-2.111-5.137c.361 2.242-2.636 2.502-3.602 2.75l-.918-3.424c.97-.24 3.785-1.401 4.52.674z" fill="#FFF"/>
    </g>
</svg>
