<?xml version="1.0" encoding="UTF-8"?>
<svg width="50px" height="50px" viewBox="0 0 50 50" version="1.1" xmlns="http://www.w3.org/2000/svg"
>
    <title>Icons Crypto/Binance USD</title>
    <g id="Icons-Crypto/Binance-USD" stroke="none" stroke-width="1" fill="none" fill-rule="evenodd">
        <path
            d="M25,0 C38.807095,0 50,11.192905 50,25 C50,38.807095 38.807095,50 25,50 C11.192905,50 0,38.807095 0,25 C0,11.192905 11.192905,0 25,0 Z M37.7532129,20.7342236 L20.7334672,37.7540361 L24.9797189,42.0000201 L42,24.9804752 L37.7532129,20.7342236 Z M31.387751,14.3567135 L14.3680054,31.3764592 L18.6145248,35.6230455 L35.6342704,18.6032329 L31.387751,14.3567135 Z M12.2465194,20.7625368 L8,25.0089893 L12.2465194,29.2555087 L16.4929719,25.0089893 L12.2465194,20.7625368 Z M25.010241,8.00002008 L14.360241,18.6500201 L18.6067604,22.8964726 L29.2567604,12.2465395 L25.010241,8.00002008 Z"
            id="Combined-Shape" fill="#F0B90B"></path>
    </g>
</svg>