<svg width="32" height="32" viewBox="0 0 32 32" xmlns="http://www.w3.org/2000/svg" xmlns:xlink="http://www.w3.org/1999/xlink">
    <defs>
        <circle id="a" cx="16" cy="16" r="16"/>
    </defs>
    <g fill="none" fill-rule="evenodd">
        <mask id="b" fill="#fff">
            <use xlink:href="#a"/>
        </mask>
        <use fill="#CBA321" fill-rule="nonzero" xlink:href="#a"/>
        <circle fill="#E1B62C" fill-rule="nonzero" mask="url(#b)" cx="16" cy="16" r="15.161"/>
        <path fill="#E2CC85" fill-rule="nonzero" mask="url(#b)" d="m12.173 22.265-.507-.96.295-1.201 2.105-.813-.896-1.839.443-1.856.831-1.662 2.568-.404 1.888-1.8 4.075.309.8 4.357-1.54 5.486-.878 2.84-3.558.135-1.651-1.144-1.934-.808z"/>
        <path d="M18.413 22.234s-.492.226-1.33.174c-.244-.326-1.945-.48-1.945-.48s-.212-.064-.588.091c-.378.153-.735.135-1.07.218-.333.083-.664-.352-.92-.443-.257-.096-.596-.326-.596-.326l-.717-.07-1.44-.608-2.286-2.279-.621.974-.192 1.204.691 1.426 1.862 1.696 3.63.922 2.151-.635 2.695-1.139.676-.725z" fill="#F1D789" fill-rule="nonzero" mask="url(#b)"/>
        <path fill="#F4ECB4" fill-rule="nonzero" mask="url(#b)" d="m5.517 14.183.461-1.396.549-.9 1.768-.148-.53 1.548-1.479 2.63.614 2.348-1.088.544-.334-.513-.269-1.175-.018-1.32z"/>
        <path d="m7.5 22.139-.339-.474s-.09-.226-.039-.422c.052-.2.044-.213.018-.288-.025-.075-.243-.334-.23-.556.013-.226-.018-.3.148-.48.173-.173.121-.473.121-.473l.226.14.051-.078s.083.065.083.166c.018-.14-.057-.787.114-.935.174-.147.474.691.474.691l-.187-1.216-.479-1.248-.851-1.14-.052-1.255v-.109s-.391.6-.5 1.075c-.077.326.109.722.07 1.19-.03.467-.07.43.044.614s.391.565.282.839c-.095.236-.422.07-.422.07s-.064.191-.152.261a.582.582 0 0 0-.127-.256 1.335 1.335 0 0 1-.018.104s-.057-.18-.114-.404c-.078-.3-.16-.697-.236-.909-.031.122-.109.492-.109.492l.044.57.213.781.204.513.2.626.173.422.14.322.122.722.587.621.313.14.228-.116z" fill="#F3E19D" fill-rule="nonzero" mask="url(#b)"/>
        <path d="M5.825 13.043s-.422.718-.543 1.44c-.122.722-.23 1.486-.153 2.47.077.991.225 1.6.344 2.035.205.722.735 1.727.735 1.727l.019-.04s-.14-.256-.213-.53c-.07-.274-.096-.6-.16-.748-.057-.148-.153-.275-.2-.456-.044-.173-.051-.448-.186-.652-.057-.083-.127-.3-.148-.518-.026-.326.013-.691-.018-.992-.057-.5-.096-.839-.044-1.1.052-.262.321-1.005.487-1.595.109-.378.044-.696.243-1.025.2-.326.321-.614.365-.813.052-.181-.528.797-.528.797z" fill="#F2E8B0" fill-rule="nonzero" mask="url(#b)"/>
        <path d="M7.827 12.756s-.218.065-.321.179c-.104.108-.148.199-.288.383-.14.186-.147.334-.261.564-.114.225-.365.565-.396.686-.032.122-.083.692-.148.96-.057.27.065.601.065.601l.147-.03s0 .191.148.32c.147.127.173-.43.173-.43l.552-1.86.83-.565.091-.456-.592-.352z" fill="#F5EEC0" fill-rule="nonzero" mask="url(#b)"/>
        <path d="M8.23 13.6s-.39.026-.582.166c-.078.057-.109.103-.192.173-.152.127-.308.244-.383.41-.083.165-.173.416-.235.89-.026.2-.026.383-.044.544-.026.217-.065.39-.044.512.025.249.282.378.308.66l.53-.269.5-1.97 1.062-.666-.601-.673-.319.223z" fill="#E6DB9D" fill-rule="nonzero" mask="url(#b)"/>
        <path d="m8.313 31.187-2.369.057-1.255-.096.095-1.139c.044-.135.192-.518.236-.588.031-.103.07-.365-.018-.686.057-.09.236-.14.435-1.926.078-.665.09-1.17.147-1.486.083-.448.14-.614.127-.782-.018-.27-.039-.466-.013-.673.04-.274.308-.6.3-.826-.004-.179-.095-.295-.173-.404l-.14-.2s.531-.364.526-1.835a.143.143 0 0 1 .031.013l.262.743.178.218.686 1.279.883.857 1.305.877.818.89.083 2.375-1.07 1.388-1.074 1.944z" fill="#E5CB7A" fill-rule="nonzero" mask="url(#b)"/>
        <path d="M8.696 29.14s.019-.296.262-.488c.039.065.065.127.057.174a1.543 1.543 0 0 1 1.048-.704c.697-.127.865-.635.865-.635l1.478-1.343 1.691-1.556 2.056-.723.96-.235s.018.07-.018.225c.179-.013.575-.104.987-.249.165-.064.32-.09.403-.005.122.114.14.383.148.544.2-.044.43-.236.614-.217.295.03.556.378.857.378.396 0 .574-.244.851-.435.166-.114.404-.257.539-.353.32-.235 3.718-1.273 3.718-1.273l1.19.077.192 1.28-.103 3.36-5.453 2.848-8.595 1.318-3.5-.896-.247-1.093z" fill="#D8C173" fill-rule="nonzero" mask="url(#b)"/>
        <path d="M5.061 31.195s.314-.71.461-1.735c.122-.839.013-1.03.044-1.3.044-.403.5-1.19.539-1.343.03.313.122 1.496.448 1.76-.07.104-.187.461.23.736-.07.147-.212.326-.122.595.091.27.2.653.148 1.075a.889.889 0 0 0-.435.217c-.127.114-1.313-.005-1.313-.005z" fill="#F1D789" fill-rule="nonzero" mask="url(#b)"/>
        <path d="m10.431 30.7 1.908-.53.083.025s.044.026.044.114c.122-.07.225-.057.3-.103.04.083.078.357.249.39.179.04.37-.077.564-.224.192-.153.41-.345.575-.422.031.051.109.212.16.344.218-.174.596-.878 1.135-.865.051-.122.243-.564.748-.903.5-.34.813-.365 1.204-.334.152-.2.352-.378.564-.505.065.026.243.134.466.03.225-.103.479-.504.813-.556a.785.785 0 0 1 .518.109s.973-.966 1.644-1.287c-.026-.077-.078-.37.71-1.017.043.039.012.147.043.152.013 0 .205-.082.448-.269.3-.225.66-.46.878-.525.409-.122.844.126.844.126s.052-.038.121-.056c.104-.019.18-.032.236-.052-.005.134.07.365 0 .564 0 0 .109.065.256.109-.044.096-.14.339-.3.456.135.064.153.14.344.204a3.885 3.885 0 0 0-.261.41c-.057.12-.262.626-.352.817-.096.192-.225.544-.288.614-.064.07-.287.37-.46.518.152-.057.781-.249 1.048-.321a2033.3 2033.3 0 0 0-1.644 2.438l-2.988.891-1.465.249-7.635-.006-.673-.334.163-.25z" fill="#E0CD81" fill-rule="nonzero" mask="url(#b)"/>
        <path d="M8.295 13.53s-.225 0-.27.031c-.043.031.226.096.309.127.083.031.261.173.308.287.044.11 1.618.743 1.618.743l1.113-.057.384-.53-.73-.64.512-1.51-.678.11-1.631.973-.818.313-.117.153z" fill="#DFC57C" fill-rule="nonzero" mask="url(#b)"/>
        <path d="M10.74 14.03s.043.083.152.083c.23 0 .443.057.53.173.148.186.557.782.557.782l.979.352.065-1.152-1.07-.743-1.216.448v.057h.002z" fill="#E5CC7C" fill-rule="nonzero" mask="url(#b)"/>
        <path d="M10.548 14.457s.178.013.403-.07c.226-.083.596-.261.756-.192.226.096.18.397.422.666.148.166.417.16.57.339.153.179.678.096.678.096l.2 1.074-.8 1.025-.262 1.274h-1.082l-.989-.39-.487-1.179.244-1.19.347-1.453z" fill="#D2C281" fill-rule="nonzero" mask="url(#b)"/>
        <path d="M12.64 14.509s.038.013.082.013c-.03.026-.095.083-.07.23.026.148.11.334.04.448.03.039.077.083.12.212.045.127.058.244.345.262-.064.039-.114.09-.114.09s.2.174.3.334c.104-.005.379-.09.379-.09l.057.039.121-.052s-.114-.044-.03-.321c.077-.244.147-.23.152-.249.005-.018.057-.274.057-.378.039-.134.07-.543.07-.543l-.083-.904-.466-.282-.378-.365-.357.673-.236.235-.018.583.028.065z" fill="#E2C270" fill-rule="nonzero" mask="url(#b)"/>
        <path d="M13.76 13.753s.083.235.114.417c.019-.057.019-.11.019-.11s.064.358.077.506c.026-.005.052-.013.057.013.005.026.065.313.052.473.031-.057.179-.282.435-.435.103-.064.225-.134.352-.14.2-.005.344.128.583.128.574 0 1.095-.422 1.478-.552.282-.096.525-.166.696-.321.083-.07.23-.225.365-.456.179-.308.365-.574.552-.608-.148.026-.257.018-.257.018s.057-.057.153-.135c.096-.077.213-.173.378-.173.295 0 .443.044.609.044.165-.005.261-.044.261-.044s.174.122.565.122c.39.005.652.039.857.057.204.018.89-.057 1.087-.052.204.005.37.09.37.09l-.634-1.843-2.279-1.99-1.356.96-2.087 2.086-2.02.749-.421.473v.723h-.005z" fill="#CCB360" fill-rule="nonzero" mask="url(#b)"/>
        <path d="M18.291 12.696s.057-.057.153-.134c.096-.078.212-.174.378-.174.295 0 .443.044.608.044.166-.005.262-.044.262-.044s.173.122.564.122c.391.005.653.039.857.057.205.018.89-.057 1.088-.052a.95.95 0 0 1 .37.09l-.288-.83-.333-.635-.953-1.043-1.152-.678c-.006-.005-.396-.109-.396-.109l-1.036.627-.94 2.43-.018.513.608.288c.153-.257.321-.461.48-.487-.143.015-.252.015-.252.015z" fill="#D5B457" fill-rule="nonzero" mask="url(#b)"/>
        <path d="M18.278 12.87c-.09.005-.165-.013-.186-.078-.078-.217-.14-.248-.205-.248-.064 0-.152.14-.204.152-.052.013-.114-.16-.114-.16l-.057-.026s-.334.218-.57.474c-.235.256-.621.691-.794.769-.174.077-.77.103-.974.147-.204.044-.43.192-.46.226-.032.033.09.07.108.103.018.031-.2.018-.217.052-.013.026.051.173.082.248a.423.423 0 0 1 .179-.044c.2-.005.344.127.583.127.574 0 1.095-.422 1.478-.551.282-.096.525-.166.696-.321.083-.07.23-.225.365-.456a3.26 3.26 0 0 1 .29-.414z" fill="#D2B257" fill-rule="nonzero" mask="url(#b)"/>
        <path d="M10.035 25.683s-.052-.192-.526-.686c-.134-.14-.217-.257-.308-.34-.225-.212-.357-.269-.518-.39-.352-.262-.735-.262-1.03-.583-.295-.32-.64-.934-.878-1.561-.235-.627-.3-.826-.3-.844 0-.018.065-.14.148-.122.083.018.083.179.103.218.005.013.065.096.14.178.122.14.295.308.383.557a2.521 2.521 0 0 0-.09-.448s.455.288.844.588c.39.3.551.404.665.595.114.192.383.697.513.844.129.148 1.895.705 1.895.705l.839.626.416.914-.326.513-.626.134-1.018-.455-.326-.443z" fill="#D2B159" fill-rule="nonzero" mask="url(#b)"/>
        <path d="M7.775 22.535s.212.339.73.66c.466.282 1.204.538 1.861.691.378.09.756.16 1.095.166.914.013 1.544-.249 2.323-.334.422-.044.94-.078 1.478-.205.691-.165 1.1-.352 1.657-.613.404-.187.774-.327 1.075-.505.422-.249.73-.526 1.087-.609-.044.122-.09.34-.443.565.187-.005.443-.018.443-.018s-.249.147-.686.479c-.27.204-.627.551-.992.782-.235.147-.492.256-.66.344-.409.225-.575.339-.844.613a.36.36 0 0 1 .104 0s-.34.044-.583.174c-.052 0-.14-.018-.295.026-.122.039-.282.127-.448.173-.236.07-.313.04-.313.04l.039.077s-.309-.005-.41.005c.019.005.013.013.013.013s-.012 0-.051.018c-.031.018-.083.052-.16.07-.032.005-.058.005-.097.013.013.03.114.204.16.308a77.51 77.51 0 0 0-.62.466s.025.039.044.09c.018.058.025.14.044.18.044.077.07.09.07.09s-.07.013-.192.044c-.104.026-.23.07-.41.096-.051.005-.108.013-.165.013.026.057.14.274-.07.525-.212.249-.274.288-.339.448-.018-.013-.052-.039-.103-.065-.07-.03-.166-.077-.2-.14a1.675 1.675 0 0 1-.078.244c-.064.173-.16.344-.178.474-.07-.078-.2-.23-.378-.2-.179.031-.321.275-.352.345 0-.044-.031-.078-.04-.026-.004.057-.103.652-.652 1.134-.005-.122-.005-.391-.018-.48-.051.053-.114.128-.486.288-.365.16-.308.321-.308.321s-.032-.256.165-.525c.2-.27.321-.396.321-.417a.116.116 0 0 0-.026-.057c-.026-.026-.077-.057-.077-.078.03-.013.339-.16.32-.466a.827.827 0 0 0-.217-.518c-.013-.013.122-.108.104-.14-.013-.018-.179-.14-.2-.204.006-.031.013-.083.026-.114.018-.057.031-.096.026-.135a1.074 1.074 0 0 0-.103-.261c.018.005.147 0 .147 0s-.103-.166-.121-.243c-.019-.078-.057-.283-.078-.321.044.005.153.013.153 0 .005-.04-.096-.104-.052-.153.031.005.09.03.147.103-.03-.082-.082-.243-.191-.308a.47.47 0 0 1 .378.026c.153.09.204.218.204.218s.091.07.23.173c.161.127.366.308.692.435.07.039.249.039.378.013.078-.018.122-.044.16-.065.032-.018.058-.026.058-.026s-.052-.103-.096-.16c.044 0 .096.005.096.005s.03-.07-.11-.204c.032-.032.07-.052.07-.104-.043-.005-.121-.07-.14-.096.027-.018.066-.077.11-.096-.04-.03-.135-.16-.179-.173.044-.013.122-.057.122-.057s-.218-.057-.288-.104c-.07-.051-.173-.14-.235-.165-.065-.026-.179-.04-.226-.09.044.012.114 0 .166 0 .039 0 .057.004.07.004-.005-.018-.005-.057.096-.07.096-.018.14-.044.14-.044s-.096-.005-.205-.108c-.109-.104-.2-.187-.261-.2-.065-.013-.187.044-.262.04-.103-.014-.147-.066-.147-.066s-.345.031-1.109-.435c-.66-.403-.947-.76-.947-.76s-.078-.027-.179-.084c-.248-.129-.593-.398-.582-.75z" fill="#C2A44D" fill-rule="nonzero" mask="url(#b)"/>
        <path d="M17.3 6.995s.09.026.152.104c.122.14.2.404-.077.686.108.039.153.052.248.039-.095.114-.313.357-.326.57-.013.173.096.225.096.225s-.166.191-.174.512a2.06 2.06 0 0 1 .257-.243c.191-.153.455-.326.634-.435a.368.368 0 0 0 .018.135s.334-.275.614-.153c.127.057.07.236.07.236s.173-.065.295.057c.121.121.295.434.383.556.039.057.14.166.243.334.122.2.257.474.352.743.006-.134.04-.344.422-.212.384.134.819.417 1.184.973.365.557.455 1.184.64 1.422.186.23.377.613.39.774.013.16-.057.678.326 2.079.109-.435.275-1.4.275-1.4l.09-.853.104-2.635-2.752-2.286-2.152-1.562-1.4.135.088.2z" fill="#CAA13E" fill-rule="nonzero" mask="url(#b)"/>
        <path d="M22.413 10.918s-.039-.257-.686-.691c-.647-.43-1.152-.43-1.618-.795-.358-.288-.73-.948-.974-1.165-.235-.215-.274-.837-.274-.837l.795-.665 1.183-1.709 1-1.1.478.665.666.782.37 1.57.134 2.296-1.074 1.649z" fill="#B59544" fill-rule="nonzero" mask="url(#b)"/>
        <path d="M23.213 13.67s.044-.5-.127-1.03c-.17-.531-.544-1.474-.717-1.826-.07-.39-.018-.422.057-.466.078-.044.357-.204.513-.769.152-.564.634-.582.634-.582l.295-.218.448 1.121.39 1.013.122.774.091.66-.212 1.395-1.049.948-.445-1.02z" fill="#C89D3A" fill-rule="nonzero" mask="url(#b)"/>
        <path d="M8.313 31.187s-.235-.435-.248-.621c-.005-.179.064-.295.064-.295s-.09-.135-.173-.166a.57.57 0 0 1 .122-.275c.07-.082.204-.191.23-.23.026-.039.039-.09.114-.104.078-.013.16-.013.16-.113v-.187s.032-.018.057-.052c.019-.026.032-.057.044-.064a.478.478 0 0 1 .213-.04c.065.014.235.084.326.078.186-.005.404-.147.748-.082.518.095.64.447.94.647.205.14.417.078.448.078h.07c.013 0 .109-.11.16-.104.104.005.114.09.179.096.153.018.448-.078.595-.04a.287.287 0 0 1 .117.474c-.16.148-.313.288-.344.41.044.03.121.103.121.103s-.07.065-.199.127c-.057.026-.148.07-.249.083-.191.018-.43.044-.57.249-.139.204-.62.09-.62.09l-2.305-.062z" fill="#CEB052" fill-rule="nonzero" mask="url(#b)"/>
        <path d="M22.369 24.052s.404-.539.544-.805c.14-.275-.443-3.757-.443-3.757l1.17-3.834-.03-1.248s.056-1.152.19-1.652c.161.287.66.634.77.818.051-.352.225-1.095.199-1.887.096.147.326 1.63.326 1.63l.23 1 .3 1.062.335 1.12.2.775.113.186.096.326.09.353.262.825.153.679.121 1.23s.044.152.057.287c.006.134-.018.212-.018.235 0 .026.044.296.026.5-.026.205-.026.365-.186.513-.16.147-.262 1.025-.262 1.025l-.287-.192s.057-.261-.078-.5a.509.509 0 0 0-.543-.248c-.148.031-.443.078-.539.16-.09.084-.313.34-.518.456-.256.153-.673.166-.896.218-.225.052-.473.204-.735.383a4.097 4.097 0 0 1-.647.342z" fill="#CCA847" fill-rule="nonzero" mask="url(#b)"/>
        <path d="M22.369 29.709s.225.147.64.248c.414.101 1.473.71 1.473.71l.89.543 1.1.083.966-.134s.031-.41-.03-1.934c-.066-1.53-.115-1.748-.115-1.862 0-.114-.039-2.056-.083-2.478-.044-.422-.013-.851-.026-1.1a15.955 15.955 0 0 0-.217-1.522c-.07-.262-.205-.391-.225-.391-.018.005-.127.492-.127.613 0 .122-.026.417-.026.492-.018-.005-.026-.051-.026-.07-.026.065-.057.18-.07.192-.013.013.018-.109 0-.135-.018-.025-.052-.013-.044-.077.005-.065.018-.114.018-.114s-.077.114-.134.404c-.057.287-.057.295-.078.32-.018.032-.122.135-.127.174-.005.07.096.14.104.179.005.065-.09.365-.122.512-.031.148-.018.435-.052.583-.026.135-.052.212-.14.27.065.012.127.03.127.03s.09.383-.14.71c-.082.114-.103.165-.191.269-.174.192-.308.409-.321.551a.902.902 0 0 1-.018-.126s-.27.313-.383.491c-.148.23-.353.218-.41.275-.056.057-.07.16-.051.243-.052.013-.148.031-.213.23a.485.485 0 0 1-.23.275c-.122.07-.27.09-.344.109.064.018.09.018.121.039-.038.064-.217.165-.416.295-.2.122-.296.3-.345.417-.052.108-.127.178-.248.191.051.031.127.104.165.127-.057.013-.152.013-.326.16-.181.15-.243.195-.326.208z" fill="#C39D3C" fill-rule="nonzero" mask="url(#b)"/>
        <path d="M18.522 31.143s.16-.249.564-.404c.404-.16.831-.191 1-.243.16-.052.287-.122.486-.16-.018.152-.026.274-.07.377.148.026.518-.261.717-.326.2-.065.653-.16.692-.192.039-.03.121-.217.147-.225.026-.005.096.04.14.04.083 0 .665-.54 1.126-.532.456.005.974.383.896.723.122-.07.249-.135.352-.11-.013.045-.018.097-.018.097s.249-.057.313.026c.07.082.031.16.2.357.134.166.095.204.07.261.064.018.383.127.678.404.295.275-2.356.104-2.356.104l-4.89-.044-.047-.153z" fill="#D2BA6B" fill-rule="nonzero" mask="url(#b)"/>
        <path d="M26.214 20.287s-.083.448-.23.73c-.148.283-.309.674-.309.674s0-.14.031-.262c-.186.109-.64.37-.769.487-.121.109-.326.3-.378.39.122-.356.249-.678.27-.825-.187.135-1.057.852-1.51 1.325l-1.41 1.142s-.218.122-.5.236c-.244.103-.531.191-.744.274.057-.152.148-.287.275-.417.134-.126.538-.564.6-.769.057-.212.07-.339-.005-.517-.07.018-.23.026-.339.057-.109.03-.225.147-.225.147s.083-.474.261-.921a3.8 3.8 0 0 0-.365.044s.321-.539.87-.914c-.09.018-.295.07-.492.152-.32.135-.673.334-.934.443.147-.204 1.183-1.683 1.799-3.06.614-1.375.844-1.727.979-2.465.07-.365.051-.903.07-1.388.018-.478.077-.908.038-1.196.16.2.762.762.782 2.017.018 1.256-.574 2.952-1.204 3.866.153.044.552.095.96-.614.41-.71.405-.909.552-1.204.019.148.013.2.013.2s.596-.723.878-1.632c.057.391.225.736-.039 1.453-.235.647-.544.805-.544.805s.153-.026.378-.16c.04.095.032.204.096.243.065.039.153.103.166.166.07-.104.179-.236.212-.334-.026.204-.044 1.1.052 1.556.2-.019.404-.032.544-.391-.096.352-.096.564-.031.864.106-.072.202-.202.202-.202z" fill="#C0993A" fill-rule="nonzero" mask="url(#b)"/>
        <path d="M11.304 12.186s-.404.308-.575.544c-.174.236-.262.391-.456.583a.395.395 0 0 0 .135-.019s0 .052-.031.065a.182.182 0 0 1 .147.052c-.057.031-.212.186-.09.37.09.14.282.153.282.153s-.044.127.14.114c.396-.018.838-.192 1.043-.148.205.052.321.07.466.321.153.249.287.288.287.288s.091-.23.07-.575c.122-.295.122-.583.122-.583l-.135-.991-.587-.743-.761.422-.057.147z" fill="#E3C571" fill-rule="nonzero" mask="url(#b)"/>
        <path d="M12.026 12.039s.057.134.295.147c-.026.057-.026.065-.018.11l.013.108s.03-.013.07-.052c.013.057-.013.148 0 .212a.469.469 0 0 0 .039.114s.005-.013.013-.026c.005-.013.051.14.178.257 0-.031.013-.052.013-.052s0 .044.031.09c-.013-.005-.026-.018-.026-.018s.013.41.083.622c.018-.026.026-.031.031-.044 0-.013-.005.114-.018.204-.018.09-.005.218-.005.218s.07-.057.153-.09c.077-.032.204-.128.282-.34.078-.212.103-.37.103-.37s.044.083.052.153c.005.064.127.03.127.03l.026-.282.153-.64.14-.395.673-1.049 1.216-.934 1.062.243.896-1.217-1.543-.927-1.46.153-1.326 1.836-1.062 1.664-.191.275z" fill="#D8B65B" fill-rule="nonzero" mask="url(#b)"/>
        <path d="M19.674 9.383s-.09.018-.352.152c-.262.135-.443.179-.544.378-.104.2-.109.358-.109.358s.179-.078.282-.104c.11-.026.23-.018.218.026a.303.303 0 0 1-.052.083s.205-.005.2.096a.522.522 0 0 1-.078.261c-.039.052-.2.127-.218.186-.044.122.018.127-.005.226-.018.095-.103.282-.383.608-.287.326-.41.557-.41.557s-.139-.262-.211-.487c-.052.026-.327.179-.327.179l-.636-2.22.012-.147s.057-.07.07-.2c-.095-.03-.108-.056-.235-.178-.127-.121-.23-.269-.443-.37-.031-.057-.07-.135-.225-.166-.153-.03-.249-.057-.249-.057s.083-.03.122-.095c-.096.013-.173.044-.383.038-.212-.005-.236-.013-.352.006-.117.018-.257.07-.308-.11-.057-.043-.179-.004-.283.148-.103.153-.14.275-.339.334a.692.692 0 0 1-.09.249c-.057.096-.148.192-.27.334-.191.225-.16.595-.466.878-.308.282.052-.782.052-.782l.492-1.178 1.4-1.37 2.175-.147.213 1.126 1.061.365.67 1.023z" fill="#D3AE4D" fill-rule="nonzero" mask="url(#b)"/>
        <path d="m20.018 9.631-.914-1.318-.64-.492s-.455-.838-.486-.864c-.026-.018-.456-.065-.73-.083L17.3 7s.09.026.152.103c.122.14.2.404-.077.686.108.04.153.052.248.04-.095.113-.313.356-.326.569-.013.173.096.225.096.225s-.166.192-.174.513a2.06 2.06 0 0 1 .257-.244c.191-.153.455-.326.634-.435a.368.368 0 0 0 .018.135s.334-.275.614-.153c.127.057.07.236.07.236s.173-.065.295.057c.121.121.295.435.383.556.039.057.14.166.243.334.122.2.257.474.352.743.006-.103.026-.248.205-.248l-.272-.487z" fill="#CAA13E" fill-rule="nonzero" mask="url(#b)"/>
        <path d="M6.317 13.375s-.065-.16 0-.474c.065-.313.166-.46.2-.922.03-.46.333-1.035.333-1.035l.832-.378.587.16.174.787-.743.41s-.04.173-.249.313c-.212.14-.5.248-.57.39-.07.148-.09.275-.09.275s-.212-.044-.34.096c-.134.142-.129.269-.134.378z" fill="#F4EFC8" fill-rule="nonzero" mask="url(#b)"/>
        <path d="M7.995 13.165s-.07.044-.122.153c-.052-.083-.173-.575-.179-1.018-.005-.442-.03-.551.07-.704.104-.153.505-.313.448-.588-.057-.261-.295-.37-.587-.295-.205.052-.358.487-.57.704-.16.166-.352.14-.404.23-.07.123-.005.244-.026.322-.005.026-.07.166-.186.334-.236.34-.634.818-.686 1.248.018-.244.005-.249.07-.518l-.04-.065.257-.839.166-.69.37-1.158.652-1.183.635-.71.66.044.078.992.378 1.861.794.98-1.273.856-.505.044z" fill="#EBCC73" fill-rule="nonzero" mask="url(#b)"/>
        <path d="M8.39 13.517s-.108.026-.147.005c-.038-.018-.077-.044-.064-.07.013-.025.082-.07.082-.09 0-.018-.005-.07-.064-.078-.06-.008-.078.031-.078.031s-.057-.044-.103-.052c.038-.005.082-.005.082-.005s-.108-.052-.225-.064c.065-.04.192-.153.275-.153.082 0 .134-.013.121-.057-.013-.044-.077-.109-.147-.135.026-.03.044-.077-.018-.204-.065-.127-.04-.213-.019-.244.019-.039.083-.108.114-.152s.057-.104.11-.135c.025-.018.108-.052.19-.083.091-.031.166-.07.218-.031.057.039.031.09.031.09s.179-.064.34.019c.16.077.55.127.55.127l.14.282-.926.795-.383.191-.078.013z" fill="#E5C66B" fill-rule="nonzero" mask="url(#b)"/>
        <path d="M9.678 12.217s-.288.192-.352.262c.038.005.103.031.077.07-.03.039-.217.173-.32.3a1.984 1.984 0 0 0-.25.365c-.038.07-.333.275-.434.3.212 0 .64-.26.8-.26-.005.077.044.165.134.173.09.005.352.056.705-.161.352-.212.235-.37.383-.474.282-.186.396-.352.551-.455.153-.104.236-.127.236-.127s.005-.078.052-.07a.07.07 0 0 1 .057.044s.269-.192.613-.244c-.013-.005-.018-.018-.018-.018s.026-.013.031-.026c0 0 .018-.025.031-.013.013.013.031.11.057.148.057-.026.166-.27.166-.27l.261-.747v-.684l-.204.039-1.536.652-.932.966-.108.23z" fill="#E6BD62" fill-rule="nonzero" mask="url(#b)"/>
        <path d="M14.1 8.865s.134-.031.235-.096c-.03.083-.03.173-.165.37-.135.2-.14.225-.249.43-.109.212-.122.518-.225.652a.474.474 0 0 1 .147-.044s-.103.091-.147.187-.122.295-.313.417c-.192.121-.435.199-.697.486-.261.283-.53.64-.665.77.07-.122.165-.366.191-.526.026-.16-.005-.352.04-.565.043-.212.043-.365.255-.735.213-.37.575-1.657.575-1.657l.782-.248.236.559z" fill="#B6933F" fill-rule="nonzero" mask="url(#b)"/>
        <path d="M13.535 8.39s-.235.34-.3.64-.005.275-.044.422a.551.551 0 0 0 0 .275s.103-.187.326-.321c.223-.135.404-.23.513-.345.109-.121.2-.32.435-.473-.096-.013-.23-.057-.257-.052.096-.109.384-.275.674-.474.287-.204.269-.287.735-.492-.153.026-.225-.013-.352 0 .052-.109.23-.16.409-.339.178-.179-.114-.443-.114-.443l-1.365.826-.66.777z" fill="#C49937" fill-rule="nonzero" mask="url(#b)"/>
        <path fill="#DFC068" fill-rule="nonzero" mask="url(#b)" d="m9.83 7.775.031-.249.391-.626.41-1.1V4.294l-.032-.87.065-.57.05-.18.051-.07.334.173.46.627.045 1.209-.448 1.908-1.279 1.395z"/>
        <path d="M10.848 6.6s.308-.757.448-1.427c.026-.135.077-.27.09-.378.065-.634.083-.896 0-1.243-.064-.256-.313-.487-.442-.665-.127-.187-.187-.257-.16-.295a.288.288 0 0 1 .224-.096.77.77 0 0 1 .552.256c.2.23.357 1.012.357 1.012l.166 1.03.422 1.3-1.657.505z" fill="#C99E3D" fill-rule="nonzero" mask="url(#b)"/>
        <path d="M13.735 5.812s-.057.026-.16 0a.23.23 0 0 1-.104.218c-.11-.044-1.127.044-1.127.044s-.473-.083-.621-.71c-.104-.416.078-.991.018-1.37-.09-.556-.217-.665-.23-.838-.013-.173-.026-.217-.026-.326-.057-.013-.09-.031-.148-.031-.013-.052.013-.096-.044-.187.031.013.244.04.492.275.205.191.205.261.236.3.039.039.352.308.486.575.135.266.397 1.12.456 1.26.018.058.057.115.153.244.15.186.37.495.619.546z" fill="#B58634" fill-rule="nonzero" mask="url(#b)"/>
        <path d="M12.057 3.2c.096.153.274.46.422.787.153.344.243.627.435.857-.104-.3-.287-.89-.396-1.1-.122-.223-.37-.461-.461-.544z" fill="#A88F33" fill-rule="nonzero" mask="url(#b)"/>
        <path d="M10.296 7.456s-.261.065-.748.321c-.16.083-.313.153-.46.218a7.975 7.975 0 0 1-1.122.422.738.738 0 0 0 .04.044s0 .127.07.2c-.04.038-.558.39-.405 1.568.104-.039.225-.09.244-.09.03.005.038.09.077.09.04 0 .166-.052.3-.225-.005.07-.082.774.335 1.248.077-.09.274-.391.274-.391l.005-.096s.018-.334.127-.64c.109-.308.321-.53.321-.53l1.108-1.582-.166-.557z" fill="#E6C367" fill-rule="nonzero" mask="url(#b)"/>
        <path d="M9.26 9.779s-.077.057-.165.082a.64.64 0 0 1 .109-.504c.179-.262.57-.601.678-.87.07-.174.039-.609.66-1.165.622-.557.865-.749.865-.749l1.005-.504 1.235.486-.614 2.406-.476 1.126-1.896-.358-1.4.05z" fill="#DCBA5A" fill-rule="nonzero" mask="url(#b)"/>
        <path d="m9.983 9.126.236-.295v-.21s.261-.07.543-.357c.283-.287.674-.839 1.018-.805.344.039.378.748.39.947.014.2.058.653.128.896.077.244-.84 1.165-.84 1.165l-.62.474-.855-1.815z" fill="#E9CE77" fill-rule="nonzero" mask="url(#b)"/>
        <path d="M10.713 11.583s.192-.3.052-.365c.083-.186.236-.383.236-.383s.108-.27.46-.6c.353-.335.57-.552.627-.775.057-.225.057-.443.057-.443s.07.057.122.083c.057.026.326.249.287.697-.039.448-.204.634-.204.634s-.161.16-.275.243c-.122.083-.166.18-.37.187a.245.245 0 0 1 .07-.039s-.213-.026-.326.078c-.114.103-.358.422-.48.517l-.256.166z" fill="#CDAE50" fill-rule="nonzero" mask="url(#b)"/>
        <path d="M19.322 6.548s-.41-.166-.953-.187c-.544-.018-1.339.013-2.118.018-.839.005-1.6-.287-2.656-.339-.174-.103-.614-.557-1.991.404.083-.005 1-.212 1.318.186.32.397.23 1.07.186 1.23-.083.357-.352.878-.46 1.243-.11.365-.084.557-.161.813-.078.256-.249.383-.148.678.135-.083.205-.083.43-.588.225-.504.179-.864.551-1.291.365-.43.974-1.018 1.204-1.165.23-.148 2.066-1.1 3.987-.192.464-.05.81-.81.81-.81z" fill="#D2A83E" fill-rule="nonzero" mask="url(#b)"/>
        <path d="M12.378 6.195s-.005-.044-.013-.056a.41.41 0 0 0-.07-.104s-.456-.083-.686-.057c-.404.044-.769.544-.94.8-.173.256-.383.652-.613.857a.085.085 0 0 0-.013-.057s.013.018-.013.044-.026.039-.013.052l.039.039c.013 0 .37-.16.857-.614.517-.474.914-.717 1.12-.8.159-.072.345-.104.345-.104z" fill="#C29637" fill-rule="nonzero" mask="url(#b)"/>
        <path d="M21.217 4.249s-.083.103-.187.217c-.23.243-.53.518-.787.8-.243.27-.517.479-.826.831-.308.352-.665.743-.756.857a.843.843 0 0 0-.147.396 3.55 3.55 0 0 0-.096-.065s.026.052.078.114c.065.091.165.205.217.275a.837.837 0 0 1 .135.295c.031.005.23.044.479-.365.248-.41.575-.857.575-.857l.517-.769.327-.652.409-.73.062-.347z" fill="#AC8132" fill-rule="nonzero" mask="url(#b)"/>
        <path d="M21.748 3.726s-.314.256-.435.409c-.122.152-.41.556-.41.556l.104-.013.526-.466.204-.365.01-.121z" fill="#A88F33" fill-rule="nonzero" mask="url(#b)"/>
        <path d="M21.652 24.3s-.005-.212.114-.339c.121-.127.43-.313.73-1.012.3-.697.334-.857.334-.857s-.539.46-.87.57c.078-.161.122-.275.16-.358-.044-.039-.23-.083-.248-.103.103-.104.16-.358.37-.526.27-.204.761-.557 1.144-.87.384-.313 1.134-1.043 1.23-1.255.057.082.07.134.07.134s-.378.492-.575.805c-.173.27-.16.422-.16.422l.357-.152s.104.383-.365.965c.205-.077.287-.03.404-.096-.192.122-.456.288-.704.744-.244.455-.575.986-1.134 1.317-.544.35-.857.611-.857.611z" fill="#A67A2E" fill-rule="nonzero" mask="url(#b)"/>
        <path d="M20.249 6.817s-.213.443-.244.787c-.005.083-.026.147-.026.243-.005.308.018.653-.051.813-.026-.065-.04-.109-.065-.134-.04.108-.109.447-.166.574a2.699 2.699 0 0 1-.078-.71c.006-.338.013-.403.013-.473-.013.104-.082.244-.108.326-.04-.07-.083-.16-.135-.235-.031.052-.07.127-.104.165a2.379 2.379 0 0 1-.025-.23c-.006-.135-.013-.308-.006-.344.013-.07.122-.345.352-.596.275-.3.557-.877.64-1.056.083-.179.435-.922.435-.922h.27l-.392.89s-.235.488-.357.666c-.122.179-.378.691-.492.89.083-.108.153-.165.236-.268.08-.073.303-.386.303-.386z" fill="#8C6228" fill-rule="nonzero" mask="url(#b)"/>
        <path d="M21.753 3.692s-.052.186-.205.37c-.16.192-.505.448-.673.653-.153.199-.46.743-.321 1.387.052-.14.148-.417.404-.73s.53-.673.665-.953c.135-.282.153-.504.153-.504l.052-.065-.031-.148-.044-.01z" fill="#CBA94C" fill-rule="nonzero" mask="url(#b)"/>
        <path d="M26.995 20.865s-.103-.282-.134-.539c-.031-.256.052-.308-.044-.6-.057-.18-.16-.153-.187-.18-.025-.025-.044-.294-.038-.442a1.657 1.657 0 0 0-.031-.422c-.04-.03-.065-.057-.122-.248-.065-.192-.096-.288-.127-.345-.031-.057-.122-.108-.122-.165 0-.114.104-.174.104-.205-.005-.065-.083-.013-.104-.031-.026-.031.065-.217.031-.243-.013-.013-.103.095-.127.064-.025-.03-.056-.339-.103-.543-.044-.2-.09-.345-.096-.404-.005-.057-.357-1.062-.443-1.305a6.14 6.14 0 0 1-.173-.627c-.026-.121-.044-.37-.057-.344-.013.026-.005.153-.026.148-.018-.006-.083-.448-.103-.518-.019-.07-.127-.308-.153-.48-.026-.173-.083-.626-.122-.934-.039-.308-.057-.435-.057-.512 0-.04.013-.262-.03-.565a5.246 5.246 0 0 0-.244-.953c-.174-.434-.635-1.548-.717-1.825 0-.07.09-.03.09-.03s.225.564.391.999c.16.434.313.818.352.856.031.04.275.467.383 1.166.11.699.148 1.343.213 1.773.03.205.057.422.121.64.07.235.179.478.321.851.122.314.213.575.262.8.057.288.057.505.09.648.032.121.078.365.187.717s.27.805.378 1.087c.212.564.308 1.036.34 1.287.028.259.123 1.154.097 1.424z" fill="#A88F33" fill-rule="nonzero" mask="url(#b)"/>
        <path d="m21.766 3.66-.013.032s.039.013.03.065c0 .026 0 .126-.012.212-.013.09-.039.16-.044.217 0 .122.018.262-.153.609-.052.096-.083.178-.109.235a.7.7 0 0 1-.134.226c.09-.052.417-.257.582-.226a1.214 1.214 0 0 0-.396.358.895.895 0 0 0 .308 0c.288-.044.609-.148.89-.127.309.018.187-.37.187-.37l-.357-.782-.673-.474-.106.026z" fill="#BE9C44" fill-rule="nonzero" mask="url(#b)"/>
        <path d="M23.521 9.517s-.3-.3-.422-1.33c-.122-1.036-.096-2.561-.096-2.561l-.243-.596s-.052-.396-.179-.543c-.127-.148-.378-.396-.492-.518-.114-.122-.243-.287-.32-.313.038-.065.212-.43.877-.435.665-.005.87.365.94.5.07.134.383.717.5 1.825.108 1.108.113 1.19.095 1.574a8.926 8.926 0 0 1-.204 1.23c-.112.445-.233.942-.456 1.167z" fill="#A17C34" fill-rule="nonzero" mask="url(#b)"/>
        <path d="M22.579 10.4s.14.018.287-.065c.096-.005.443.04.71-.3.018.078.064.287-.058.474.065-.065.161-.09.174-.109.005.096.096.39-.287 1.108.103-.114.225-.109.334-.122.005.135.077.588-.114.831-.127.166-.334.114-.334.114s.005-.057 0-.108c-.006-.07-.031-.14-.013-.187-.026-.013-.135-.057-.27-.186-.225-.212-.517-.575-.538-.844-.026-.3.243-.365.243-.365s-.03-.026-.057-.07c-.013-.044-.026-.114-.077-.171z" fill="#8C6228" fill-rule="nonzero" mask="url(#b)"/>
        <path d="M20.583 7.143s-.013-.018-.083.065c.013-.083.026-.16.03-.236a.813.813 0 0 1 .128-.191c-.04.077-.065.147-.065.147s.096-.178.235-.287c.096-.078.218-.114.27-.187.057-.077.044-.09.057-.103 0 0 .127-.083.32-.326.027-.031.065-.065.091-.096a4.18 4.18 0 0 0 .27-.127c.126-.07.269-.166.357-.205.173-.077.357-.07.443-.191.064-.018.134-.212.121-.378.096.039.588.344.756 1.012.122.474-.096 1.204-.186 1.556-.09.352-.104.614-.23.774-.161.213-.679.513-.806.66-.108.122-.435.43-.422.653.013.166.218.256.262.287.044.031.044.07.127.052.082-.018.114-.057.147-.057.039.005.039.013.057.013.018 0 .039-.005.039-.005s-.013.235-.564.308c-.04.005-.078.018-.127.026.064-.031.103-.031.173-.127-.077-.013-.3-.026-.357-.044a.691.691 0 0 1 .127-.153c.044-.039-.005-.052-.044-.03-.018.012-.104.069-.192.147-.065.057-.122.134-.225.204a.505.505 0 0 1 .096-.443c-.031.006-.09.096-.148.078a.823.823 0 0 1 .018-.282c.031-.117.2-.321.2-.321l.813-1.453.173-1.1-1.861.36z" fill="#92723A" fill-rule="nonzero" mask="url(#b)"/>
        <path d="M20.539 7.205s-.045.031.044.09c-.013.019-.044.084-.083.128-.044.051-.09.083-.11.127-.038.09-.069.152-.069.191 0 .039-.013.287-.122.448-.038.057-.082.153-.114.217-.064.114-.121.205-.134.257-.026.09-.044.339-.044.339l.077-.096a.72.72 0 0 1-.113.187c.03-.026.121-.091.274-.226.212-.178.544-.479.948-.717-.122.044-.226.044-.309.057.065-.065.648-.748.953-.813.031-.039.026-.083.026-.083l-.261-.026-.531.114-.078-.409-.354.215z" fill="#B18E3E" fill-rule="nonzero" mask="url(#b)"/>
        <path d="M21.383 9.535s-.07.07-.135.244a.81.81 0 0 1-.127-.174c-.096-.16-.243-.365-.588-.248-.005-.11-.013-.166 0-.244.057-.013.23-.152.404-.357.122-.14.236-.3.313-.505.052-.039.14-.103.257-.179.165-.113.365-.269.396-.442-.078.03-.243.109-.492.096.096-.044.243-.091.225-.283l.07-.044s-.03-.013-.09-.013c-.006-.018-.013-.044-.057-.03-.044.012-.052.012-.057.03-.019.006-.078 0-.122.031-.044.032-.166.135-.212.153l.044-.077s-.127.013-.218.051c-.166.057-.357.16-.551.262.018-.031.026-.052.039-.057.012-.005.044-.013.044-.018 0-.005-.013-.052-.006-.07.006-.018.114-.23.205-.352.09-.122.109-.295.109-.295l.396-.2 1.113-.256.722.044-.09.5-.427.872-.365.795-.417.487-.383.28z" fill="#543E26" fill-rule="nonzero" mask="url(#b)"/>
        <path d="M23.187 7.373s-.435.539-.557.622c.078-.166.557-1.152.73-1.427-.038-.03-.09-.03.032-.512-.104.243-.14.37-.226.435-.083.064-.095.044-.152.044.018-.031.013-.065.013-.065s-.366-.044-.614-.044c-.249 0-.743.135-1.018.243-.217.09-.339.09-.416.148-.078.065-.122.134-.16.153-.032.018-.18.064-.213.113-.031.052-.083.11-.083.122 0 .013-.013.031.026.018a3.53 3.53 0 0 0 .217-.121 5.97 5.97 0 0 1 .456-.236c.37-.148.487-.122.652-.153.174-.03.422-.103.588-.103.166-.005.48 0 .552.013-.031.026-.057.057-.044.165 0 .031-.026.065-.052.14-.078.212-.225.565-.308.743-.114.244-.244.448-.308.575-.065.127-.205.46-.345.64-.14.178-.212.287-.256.326-.044.038-.357.269-.334.352a1.72 1.72 0 0 0 .678-.448c.262-.295.314-.474.518-.634.205-.161.365-.43.46-.653.081-.207.063-.272.164-.456z" fill="#806031" fill-rule="nonzero" mask="url(#b)"/>
        <path d="M13.812 11.392s-.057.235-.186.352c-.127.114-.352.212-.378.404-.031.191.225.287.225.287s-.14.23-.14.404c0 .178-.005.212.013.383a.173.173 0 0 0-.052.052s.013.165.14.269c.127.104.236.166.3.14a.61.61 0 0 1 .027.065s.095-.244.16-.456c.065-.218.122-.186.148-.48.025-.294.308-.794.308-.794l.191-.43-.313-.243-.443.047z" fill="#B6903C" fill-rule="nonzero" mask="url(#b)"/>
        <path d="M14.395 11.814s-.096.095-.179.212c-.083.114-.147.217-.27.261-.12.044-.198.044-.19.166.007.122.121.174.186.236.07.064.127.173.096.295.038-.018.108-.039.173-.179.065-.14.518-.991.518-.991h-.334z" fill="#685026" fill-rule="nonzero" mask="url(#b)"/>
        <path d="M16.179 9.849s.038-.104 0-.18c-.04-.077-.275-.103-.391-.19-.122-.091-.27-.153-.391-.115.018-.044.09-.14.03-.16-.056-.018-.268.078-.325.122-.057.044-.187.095-.213.126-.026.031-.07.091-.095.065-.026-.018-.04-.065-.083-.039-.044.026-.257.2-.295.3a1.534 1.534 0 0 1-.391.583c-.262.256-.378.422-.3.518.077.096.113.026.126.109a.693.693 0 0 1-.013.243c-.03.135-.083.262-.013.287.179.057.352-.051.391-.018.078.07-.044.321.14.37.186.052.37-.043.37-.043l.679-.366.652-.344.334-.66-.179-.551-.033-.057z" fill="#D4B968" fill-rule="nonzero" mask="url(#b)"/>
        <path d="M15.54 11.425s-.115-.173.025-.326c.14-.153.34-.217.417-.313a.12.12 0 0 0-.057-.04s.07-.139.225-.211a.215.215 0 0 0-.147-.07c-.127 0-.205.077-.321.077-.114 0-.127-.057-.127-.057s.191-.018.173-.103c-.018-.09-.052-.09-.052-.09s.37-.153.435-.236c.065-.083.057-.179.07-.218.044 0 .3-.134.404-.077.104.056.031.212.031.212s.313-.236.474-.466c.14.013.204-.096.308-.096.127 0 .326.173.365.544.026.212.065.334.026.71-.018.211-.013.664.052.89.044.178.147.16.147.16s-.018.078-.09.14c-.07.065-.078.236-.07.3.013.065.039.14.039.14s-.083.096-.104.16c-.018.065-.103.11-.166.11-.064 0-.03-.006-.114 0-.082.005-.108.018-.16 0-.052-.019-.09-.04-.07-.205.018-.166-.64-.552-.64-.552l-1.074-.383z" fill="#CCA849" fill-rule="nonzero" mask="url(#b)"/>
        <path d="M14.304 13.061s.236.314 1.204.314c.46 0 .621-.044.717-.07.104-.026.492-.179.883-.64.352-.416.275-.587.275-.587l-.205-.031-.665.09-1.97.84-.239.084z" fill="#585136" fill-rule="nonzero" mask="url(#b)"/>
        <path d="M15.027 13.14s-.84.186-.84-.345c0-.518.519-1.062.648-1.157.135-.096.456-.205.456-.205h.774l.147.39-.064.845-1.121.471z" fill="#252211" fill-rule="nonzero" mask="url(#b)"/>
        <path d="M15.8 11.59s-.16-.147-.525.053c-.365.2-.66.613-.678.991-.018.334.274.583.73.596.339.013.544-.026.647-.052l-.16-.2-.013-1.387z" fill="#C3B378" fill-rule="nonzero" mask="url(#b)"/>
        <path d="M15.643 11.674s-.04-.031-.153.03c-.096.053-.236.187-.344.283-.07.057-.114.083-.153.127-.16.192-.295.505-.218.66.078.153.334.334.987.212l-.12-1.312z" fill="#E6D89C" fill-rule="nonzero" mask="url(#b)"/>
        <path d="M15.43 11.995s-.103.16-.103.417c0 .261.147.678.691.709.417.026.697-.6 1-.844.23-.186.37-.192.37-.192s-.236-.256-.865-.587c-.621-.334-1.318-.378-1.696.134.179-.013.756-.16.756-.16l.282.09-.435.433z" fill="#252211" fill-rule="nonzero" mask="url(#b)"/>
        <path d="M16.5 12.7c-.051-.068-.088-.158.126-.181.223-.023.311-.009.385.09.074.1.149.182.037.222-.11.037-.4 0-.547-.13zm-.347-.638s-.075.032-.038-.032c.015-.077.112-.212.349-.18.236.03.185.19.148.235-.037.045-.237.122-.385.09-.149-.032-.074-.113-.074-.113z" fill="#6F674D" fill-rule="nonzero" mask="url(#b)"/>
        <path d="M9.113 12.135s.205.152.443.147c.236-.005.538-.248.678-.404.083-.09.153-.186.23-.261.065-.065.11-.096.14-.14.045-.052.091-.148.114-.179-.057.044-.14.122-.225.174a2.592 2.592 0 0 1-.334.173c-.07.026-.795.41-.795.41l-.25.08z" fill="#AC924C" fill-rule="nonzero" mask="url(#b)"/>
        <path d="M9.427 10.221s.113-.077.334-.127c.212-.051.639-.09.639-.09l.352.153.14.53-.256.552-.327.204-.37-.595-.512-.627z" fill="#9F8E57" fill-rule="nonzero" mask="url(#b)"/>
        <path d="m8.966 10.695-.122.09s.031-.056.057-.23c.026-.173.16-.595.357-.838.197-.244.192-.23.192-.23s-.057-.014-.104.025c.026-.057.192-.262.358-.365.165-.104.23-.135.403-.052.174.083.218.127.345.122.127-.005.235-.14.235-.14s.026.083-.07.274c-.095.192-.473.583-.473.583l-.787.538-.391.223z" fill="#EAC970" fill-rule="nonzero" mask="url(#b)"/>
        <path d="M9.548 10.157s.57.077.743-.083c.005.018.026.018.026.03 0 .014-.013.027-.013.027s.031-.005.057-.005c.026.005.044.013.07.013a.413.413 0 0 0 .057-.006s-.005.044-.039.065c.026 0 .052.005.052.026 0 .02.005.083-.026.096-.039.013-.078-.005-.078-.005s0 .07.04.14c.051.095.16.204.307.173 0 0 .078.186-.248.6-.044.057-.09.135-.148.2-.044.103-.052.153-.052.153s.552-.213.71-.697c.16-.487.191-.966.16-1.413a.725.725 0 0 0-.057-.283c-.077-.16-.295-.134-.383-.044-.127.127-.339.443-.634.66-.3.218-.313.257-.544.353z" fill="#D7BC6B" fill-rule="nonzero" mask="url(#b)"/>
        <path d="M8.865 10.856s-.109.064-.166.308c-.057.248.052.551.114.647.065.096.204.357.5.37.064 0 .14-.013.212-.044.103-.044.204-.114.287-.178.127-.096.23-.18.218-.187-.031-.013-.782-.634-.782-.634l-.282-.316-.101.034z" fill="#585136" fill-rule="nonzero" mask="url(#b)"/>
        <path d="M9.574 11.886s.153-.013.243-.07c.091-.057-.53-.673-.53-.673l.044.665.243.078z" fill="#453A25" fill-rule="nonzero" mask="url(#b)"/>
        <path d="M8.914 10.81s-.078.147-.078.185c-.013.127.026.526.057.653.031.135.2.34.417.34.135 0 .321-.084.321-.105 0-.025-.192-.051-.243-.147-.031-.052-.044-.179-.052-.308-.005-.083-.005-.174.026-.205.07-.077.083-.3.083-.3l.248-.46h-.326l-.39.243-.063.103z" fill="#84754B" fill-rule="nonzero" mask="url(#b)"/>
        <path d="M8.818 10.951s.256-.339.487-.416c.23-.078.334-.031.334-.031l-.135.344-.191.212.013.109s-.032.287.16.487c.192.199.334.191.417.191.083 0 .32-.07.443-.357.108-.27.199-.614-.018-.96-.213-.345-.588-.358-.66-.358-.073.003-.643.029-.85.78z" fill="#252211" fill-rule="nonzero" mask="url(#b)"/>
        <path d="M15.392 12.104c-.096-.044-.006-.314.09-.397a.674.674 0 0 1 .43-.191c.078-.005.153.044.14.096-.018.095-.153.23-.275.326-.168.132-.277.215-.385.166z" fill="#F7F7E7" fill-rule="nonzero" mask="url(#b)"/>
        <path d="M10.214 10.636c.07-.006.16.051.178.126.018.083-.044.249-.178.249-.11 0-.166-.135-.166-.173a.2.2 0 0 1 .026-.091c.005-.008.018-.098.14-.111z" fill="#F8F6DE" fill-rule="nonzero" mask="url(#b)"/>
        <path d="M9.204 10.695s-.179.083-.262.256a.68.68 0 0 0-.051.41c.013.064.077.225.121.282.044.057.104.096.148.09.044-.005.134-.121.134-.191s.006-.365.091-.526c.075-.16-.181-.32-.181-.32z" fill="#D4C38B" fill-rule="nonzero" mask="url(#b)"/>
        <path d="M9.23 10.682c-.031.018-.083.044-.07.078.013.03.122.052.16.127.044.077.044.16.031.2a.313.313 0 0 0 .091-.066c.057-.064.127-.152.186-.152.04 0 .078.018.114.018.057 0 .114-.018.122-.078.013-.078-.109-.148-.179-.135.013-.051.032-.126-.025-.178-.057-.052-.236.039-.275.065-.041.025-.155.121-.155.121z" fill="#E2D59D" fill-rule="nonzero" mask="url(#b)"/>
        <path d="m13.344 16.122.383-.114.109.077s.077.166.199.187c-.039.083-.14.153-.135.212.006.06.057.104.057.104s-.344.57.334 1.144c-.16.065-.365.153-.474.205.078.018.244.051.314.113.07.065.07.083.134.122.065.039.104.09.091.114-.044-.026-.192-.103-.217-.031-.026.07-.64.044-.64.044l-1.036.2s.04-.104-.07-.2c-.126-.114-.282.005-.447-.122-.218-.165-.226-.357-.296-.43.07-.043.213-.108.552-.152-.013-.026-.057-.104-.031-.174.03-.09.16-.147.122-.256.057-.013.082-.013.225-.192.134-.178.217-.217.32-.23.104-.013.167 0 .358-.179.135-.126.09-.235.09-.235s.089-.029.058-.207z" fill="#CBAC5A" fill-rule="nonzero" mask="url(#b)"/>
        <path d="M12.212 16.179c.005-.026.026-.04.166-.026.14.013 1.025-.083 1.266-.096.243-.018 1.1-.005 1.517.083.417.088.839.191 1.044.243.204.057.269.078.261.104-.005.026-.052.052-.078.044-.026-.005-.704-.213-.914-.257-.21-.044-.934-.16-1.33-.152-.37.005-.518-.005-.831.03-.314.04-.831.091-.987.07-.153-.017-.121-.017-.114-.043z" fill="#D6BC6F" fill-rule="nonzero" mask="url(#b)"/>
        <path d="M14.296 18.208s.531.288.723.64c.14.261-.083.39-.083.39s.3 0 .261.167c-.018.103-.517.383-.851.53-.34.148-.327.14-.492.166-.16.026-.6-.052-.692.078-.09.127-.051.261-.025.282.025.018.235.044.235.044s-.044.122-.479.134c-.435.013-.543.044-.57.091-.025.044.083.018.283.052.2.03.479.052.479.052s-.09.077-.326.14c-.27.07-.692.134-.819.212.065.044.161.108.205.114a1.293 1.293 0 0 0-.287.103c.038.026.09.057.09.057s-.217.262-.344.326c-.127.065-.857.404-1.108.34-.627-.166-.704-.852-.857-.904-.23-.078-.34.078-.544-.031.09-.065.14-.104.236-.148-.104-.051-.64-.39-.64-.39s-.064-.148-.186-.358c-.104-.178-.256-.417-.37-.626-.249-.461-.262-.674-.487-.935.039-.052.173-.044.173-.044l1.888.621 3.347.096.87-1.243.37.044z" fill="#DFC677" fill-rule="nonzero" mask="url(#b)"/>
        <path d="M9.339 20.104s.025.03.07.057c.064.044.16.095.225.173.026-.039.09-.109.204 0 .114.109.256.031.345.057.09.031.095.044.095.044s.052-.044.166-.09c.07-.027.153-.045.243-.07.083-.019.174-.045.236-.045.057.04.261.257 1.082-.064.774-.3.953-.334 1.082-.288.013-.03.026-.09.226-.083 0-.082-.166-.365-.166-.365l-.914-.313h-.5l-1.499.275-.83.473-.065.239z" fill="#C4A859" fill-rule="nonzero" mask="url(#b)"/>
        <path d="M8.839 19.578s.018.14.225.287c.205.148.27.236.27.236s.038-.052.07-.104c.03-.057.056-.121.108-.14.104-.043.34.04.39.026.045-.012.032-.103.079-.103.108-.005.178.07.217.07.039 0 .135-.005.148-.026.013-.02.018-.236.165-.34a.442.442 0 0 1 .41-.038c0 .039.005.135.108.14.104.005.114-.013.205.018.09.031.199-.005.248.147.044-.012.148-.025.122-.173.052-.039.096-.065.204-.217.026-.04.07-.083.104-.14.09 0 .2-.018.344.108-.044.032-.07.052-.083.083a.914.914 0 0 1 .104.122c.039.052.065.114.114.127.109.03.287-.013.487 0a.979.979 0 0 1 .422.127c.026-.013.026-.018.09-.005.065.012.114.018.044-.065.04.018.083.057.122.018.039-.039.07-.096.179-.109.108-.013.147.005.191-.109.057-.14-.14-.14-.14-.14s.091-.082.192-.19c.122-.115.261-.262.295-.444.057-.334-.27-.378-.27-.378l-1.581.487-1.934-.096-1.65.821z" fill="#927D49" fill-rule="nonzero" mask="url(#b)"/>
        <path d="M7.417 15.008s-.051.065-.082.218c-.031.153-.018.135-.044.243-.026.109-.345 1.191-.226 1.556.12.365.327.5.456.795.026.065.052.104.065.16.044.192.005.34.057.531.018.065.064.14.134.218.153.16.404.313.513.422.153.16.37.487.647.518.148.018.357-.044.531-.148.153-.096.249-.23.409-.308.114-.057.236-.078.344-.104.226-.044.43-.051.552-.026.186.04.626.174.87.174.096 0 .32-.013.564-.078.37-.108.818-.295 1.113-.378.174-.051.314-.064.456-.095.243-.057.448-.135.564-.283-.077-.09-.173-.23-.69-.225-.589.013-1.267.34-1.6.391-.335.052-.48.096-.853-.039-.365-.134-.378-.225-.378-.225s-.383-.27-.543-.953c-.16-.686 0-1.183.417-1.657.108-.121.082-.23.082-.23s.275-.37.2-.717c-.083-.345-.614-.275-.614-.275l-2.944.515z" fill="#6E6342" fill-rule="nonzero" mask="url(#b)"/>
        <path d="M7.86 16.16s-.039.07-.03.14c.004.07.025.16.235.365.178.179.14.378.14.378s.09.018.334-.095c.191-.091.256.07.256.07s.077-.045.178-.057c.104-.013.161-.052.161-.052s.225.23.422.339c.179.096.282.16.37.096.083-.057.083-.174.078-.226 0 0-.026-.064-.078-.134-.057-.083-.147-.179-.153-.256-.012-.18.135-.391.104-.443-.031-.052-.148-.065-.435.039-.298.098-1.582-.163-1.582-.163z" fill="#39331F" fill-rule="nonzero" mask="url(#b)"/>
        <path d="M8.539 17.318s-.148-.14-.096-.818a.838.838 0 0 1 .186.018s.08.525-.09.8z" fill="#292311" fill-rule="nonzero" mask="url(#b)"/>
        <path d="M7.487 14.49s.026-.018.057-.051c-.051.096-.287.479-.095 1.082.191.6.673 1.049 1.266 1.07.592.02.903-.27 1.26-.705.14-.173.3-.39.443-.538.212-.23.378-.296.378-.518 0-.456-.466-.66-1.152-.865-.686-.204-1.305-.179-1.626-.039-.313.153-.448.313-.53.565z" fill="#252211" fill-rule="nonzero" mask="url(#b)"/>
        <path d="m9.69 17.522.052-.026s.013-.204.096-.199c.083.013.122.122.114.16-.005.04-.026.104-.109.096-.108.003-.152-.03-.152-.03z" fill="#3F3824" fill-rule="nonzero" mask="url(#b)"/>
        <path d="M9.46 16.652s.052-.018.114.044c.052 0 .275-.025.344.019.07.044.091.082.091.082s-.261.057-.404 0c-.145-.049-.145-.145-.145-.145z" fill="#2D2815" fill-rule="nonzero" mask="url(#b)"/>
        <path d="M10.612 16.691c0-.013-.14-.108-.287-.14-.026-.005-.031.013-.052.013-.013-.005-.018-.044-.018-.044l-.083.044s-.013.019.031.052c.04.031.104.057.122.109.018.052.018.07.026.078.005.005.096 0 .14-.026.044-.029.126-.068.121-.086z" fill="#82764F" fill-rule="nonzero" mask="url(#b)"/>
        <path d="M9.305 17.217s.026-.179.2-.187c.178-.013.212.16.212.16l-.104.104c0-.002-.078-.11-.308-.077z" fill="#2D2816" fill-rule="nonzero" mask="url(#b)"/>
        <path d="M10.431 16.448s-.096.103-.308.135c-.018-.026-.057-.078 0-.161s.122-.109.186-.083a.151.151 0 0 1 .122.109z" fill="#574F35" fill-rule="nonzero" mask="url(#b)"/>
        <path d="M10.846 17.045c.008-.064-.02-.077 0-.109s.127-.096.147-.064c.008.013 0 .064 0 .129 0 .064 0 .128-.02.173-.027.064-.107.096-.147.077-.04-.013-.048-.11-.048-.129.02-.012.068-.044.068-.077zm.682-.692c0-.033.068-.097.108-.097.06 0 .06.077.067.097.02.012.02-.013.04.044.02.065.048.16.028.225-.02.064-.1.11-.12.096-.027-.032-.115-.32-.123-.365z" fill="#82764F" fill-rule="nonzero" mask="url(#b)"/>
        <path d="M10.374 16.634s.057.013.135.078c-.026.018-.065.039-.065.039s-.005-.06-.07-.117z" fill="#6E6342" fill-rule="nonzero" mask="url(#b)"/>
        <path d="M10.249 16.102c-.022-.014.065-.046.118-.04.053.005.074.026.131.032.057.005.066-.014.088-.027.022-.014.096-.006.11 0 .008.005.021.019.021.019s0-.033.044-.055a.21.21 0 0 1 .119-.013c.008.019.052.087.043.1-.008.014-.14.033-.162.02.022.032.119.1.132.113.008.014-.097.046-.14.04a2.195 2.195 0 0 1-.504-.19zm.574-.45s-.01-.02-.044-.033c-.03-.006-.132 0-.132.032a.82.82 0 0 0 .184.31c.11.095.184.173.259.195.074.02.118-.013.131-.027.009-.014.03-.114.022-.35-.009-.236-.022-.464-.044-.478-.022-.013-.11-.013-.14.014-.03.027-.228.296-.236.336z" fill="#585136" fill-rule="nonzero" mask="url(#b)"/>
        <path d="M10.356 16.96s-.09-.056-.179-.018c-.083.04-.077.192-.077.192s.057.026.114-.013.129-.104.142-.16z" fill="#574F35" fill-rule="nonzero" mask="url(#b)"/>
        <path d="M10.527 17.165c-.005-.052-.052-.052-.052-.078.005-.026.031-.044.057-.044.026 0 .052.031.083.052.031.018.078.052.083.09.005.04-.052.148-.114.148-.062-.002-.044-.116-.057-.168zm.5-.07s-.104.031-.096 0c.005-.03.03-.039.064-.039.013-.013.04-.03.065-.03.026 0 .039.012.039.012s.07-.03.09-.013c.019.018.006.018.019.04a.182.182 0 0 1 .03.077c0 .02-.077.064-.139.057-.072-.016-.06-.09-.072-.104zm.603-.116s.03.018.005.038a.414.414 0 0 1-.186.057c-.078 0-.148.013-.148-.013 0-.025.065-.077.104-.09a.082.082 0 0 1 .064-.031c.031 0 .153-.013.187-.018.03-.005.057.013.038.039-.007.018-.064.018-.064.018zm.178-.8s-.038.082-.082.082c-.044-.005-.044-.018-.044-.03 0-.019.044-.065.038-.078-.013 0-.044 0-.038-.031 0-.026.044-.057.082-.052a.17.17 0 0 1 .104-.039c.044 0 .083.013.083.039 0 .026-.052.083-.07.096-.02.02-.047.033-.073.013zm-.59 1.53s-.052.005-.052.03c0 .014.013.014.031.006.013 0 .031-.005.031-.005.006.005.006.03.044.03a.249.249 0 0 0 .091-.03c.031-.013.057-.026.057-.052-.013-.044-.039-.065-.078-.065a.103.103 0 0 0-.057.013s-.013-.026-.057 0c-.044.026-.038.026-.025.04.023.02.015.033.015.033zm-.292.269c0-.013.064-.039.082-.031.019.005.07.103.07.114 0 .013-.064.044-.09.044-.026 0-.07-.044-.07-.052 0-.005.03-.013.03-.018.009-.013-.022-.044-.022-.057zm-.205-.378c.013-.005.013-.018.031-.031.018-.013.039-.005.039-.005s.013-.026.044-.031c.031-.005.057 0 .052.013 0 .038.026.064.026.095s-.019.07-.083.096a.456.456 0 0 1-.166.013c-.013-.005-.026-.057-.013-.083.01-.028.05-.054.07-.067z" fill="#82764F" fill-rule="nonzero" mask="url(#b)"/>
        <path d="M10.83 17.618s-.067.032-.067.049c-.008.016-.008.038-.008.048 0 .01.087-.006.1-.016.003-.007-.025-.065-.025-.08z" fill="#6E6342" fill-rule="nonzero" mask="url(#b)"/>
        <path d="M10.418 17.496c.026.006.07 0 .104.013.026.013.044.04.018.07-.026.031-.052.078-.109.07-.065-.005-.127-.039-.127-.065-.005-.03.013-.07.031-.09.026-.02.04-.008.083.002z" fill="#585136" fill-rule="nonzero" mask="url(#b)"/>
        <path d="M10.387 17.522s-.083.065-.104.096c-.025.031-.152.192-.191.225a.49.49 0 0 1 .044-.064s-.078.044-.109.14c-.03.095.174.147.308.186.135.039.187.052.187.052s-.078-.114-.127-.236c-.052-.122-.078-.135-.044-.192.026-.057.065-.095.065-.14a.772.772 0 0 0-.029-.067z" fill="#574F35" fill-rule="nonzero" mask="url(#b)"/>
        <path d="M7.436 17.727s.018.005.057 0c.038-.005.442-.153.864-.127.187.013.518.039.935.153.53.14 1.19.417 1.618.575.114.044.225.121.308.152.326.127.34.127.53.16.226.032.457-.043.697-.095.295-.065.8-.096 1.243-.16.23-.032.422-.096.422-.096s-.352.352-1.196.479a3.74 3.74 0 0 1-1.03.013 3.133 3.133 0 0 1-.583-.104c-.153-.044-.466-.16-.852-.256-.27-.07-.57-.122-.914-.187-.849-.155-1.77-.334-2.1-.507z" fill="#252211" fill-rule="nonzero" mask="url(#b)"/>
        <path mask="url(#b)" d="M6.995 14.444 4.839 12.43"/>
        <path d="M6.995 14.291c-.09-.083-.186-.165-.274-.248l-.27-.249-.268-.256c-.044-.044-.091-.083-.135-.127l-.14-.122c-.357-.339-.717-.678-1.07-1.017.366.334.723.665 1.088 1.004l.127.127c.044.044.09.083.135.127l.269.249c.09.082.179.165.27.256.09.09.178.173.268.256zm-4.743-.052s1.3.135 1.934.226c.588.083 2.426.365 2.426.365l-4.36-.59zm0 0c.365.032.73.07 1.096.11.186.017.365.038.543.056l.275.031.269.04 1.087.173.544.09c.179.031.357.065.544.096a13.003 13.003 0 0 1-.544-.07l-.544-.078-1.087-.16c-.09-.013-.179-.031-.27-.044l-.274-.031c-.178-.018-.365-.044-.543-.065a31.73 31.73 0 0 1-1.096-.148zm4.23.93s-1.387.352-1.855.487c-.461.127-1.857.551-1.857.551l3.713-1.038z" fill="#CFB66C" fill-rule="nonzero" mask="url(#b)"/>
        <path d="M6.483 15.169c-.308.09-.614.179-.927.261l-.927.249-.922.27-.46.126c-.153.044-.308.083-.466.127.152-.052.308-.104.46-.148l.461-.147c.308-.096.614-.187.922-.282.313-.078.621-.16.935-.236.297-.075.61-.15.924-.22zM2.964 17.06c.153-.056 1.914-.877 2.323-1.069.204-.096.8-.308.8-.308l-3.123 1.377z" fill="#CFB66C" fill-rule="nonzero" mask="url(#b)"/>
        <path d="M2.964 17.061c.135-.051.262-.113.391-.173l.384-.179.768-.37c.257-.122.505-.256.77-.37.134-.057.269-.104.403-.148l.205-.064c.07-.018.134-.04.204-.057-.256.121-.525.225-.782.344-.256.127-.517.23-.781.344l-.782.345c-.262.106-.518.22-.78.328zm.171.718s1.595-.935 2.144-1.235c.287-.16 1.217-.622 1.217-.622l-3.36 1.857z" fill="#CFB66C" fill-rule="nonzero" mask="url(#b)"/>
        <path d="M3.135 17.779c.27-.166.544-.334.818-.505l.41-.249c.14-.083.274-.16.416-.243.14-.083.275-.166.417-.243.07-.045.14-.078.212-.11l.218-.108c.287-.14.575-.282.878-.404-.275.174-.557.321-.84.474-.14.078-.281.148-.421.225-.14.078-.275.16-.417.236-.14.083-.275.16-.417.235l-.422.23-.852.462zm3.348-1.652s-.992.761-1.313 1.004c-.32.244-1.266.927-1.266.927l2.579-1.931z" fill="#CFB66C" fill-rule="nonzero" mask="url(#b)"/>
        <path d="M6.483 16.127c-.205.173-.422.339-.634.5l-.64.491c-.217.161-.43.327-.647.487-.218.16-.435.313-.666.461.205-.173.422-.334.64-.492.217-.158.443-.313.652-.474l.64-.492c.22-.16.432-.326.655-.481zM5.35 17.939s.23-.191.518-.46c.358-.335.795-.762.935-.84l-1.453 1.3z" fill="#CFB66C" fill-rule="nonzero" mask="url(#b)"/>
        <path d="M5.351 17.94c.114-.115.236-.226.358-.335l.186-.16c.057-.052.122-.11.179-.166.114-.114.225-.236.339-.352.057-.057.114-.114.179-.166a.485.485 0 0 1 .103-.07c.031-.018.065-.052.109-.057-.026.04-.057.057-.083.09-.031.027-.057.058-.083.084-.057.057-.121.109-.178.16-.122.104-.249.205-.37.314-.122.108-.236.225-.358.334-.132.11-.254.22-.38.323zM6.9 16.903s-.844.825-1.018.96l1.018-.96z" fill="#CFB66C" fill-rule="nonzero" mask="url(#b)"/>
        <path d="M6.9 16.904a2.77 2.77 0 0 1-.244.248l-.256.243c-.083.083-.16.166-.249.249-.09.078-.173.153-.269.225l.249-.243c.083-.083.173-.153.261-.236l.249-.243c.085-.086.168-.168.259-.243zm.039.447s-.096.283-.275.635c-.217.435-.544.978-.686 1.255l.96-1.89z" fill="#CFB66C" fill-rule="nonzero" mask="url(#b)"/>
        <path d="M6.939 17.351a.727.727 0 0 1-.057.262 2.543 2.543 0 0 1-.104.243c-.039.078-.083.16-.127.236-.044.078-.096.153-.134.23l-.262.461c-.09.153-.179.308-.274.456.064-.166.152-.321.235-.474.09-.153.174-.308.256-.466.04-.078.078-.16.11-.243.038-.083.077-.16.108-.236.039-.083.07-.16.109-.236.044-.08.08-.157.14-.233z" fill="#CFB66C" fill-rule="nonzero" mask="url(#b)"/>
        <path d="M7.86 19.474s-.256.34-.23.77c.07-.226.158-.57.23-.77zm.244.34s-.091.921-.166 1.374c.106-.523.127-.479.166-1.374zm1.695 1.429s-.383 1.126-.39 1.44c.082-.322.243-.98.39-1.44z" fill="#DEC270" fill-rule="nonzero" mask="url(#b)"/>
        <path d="M10.695 19.405s.622 1.025 1.088 1.9c-.127-.44-.417-1.248-1.088-1.9z" fill="#CBAF59" fill-rule="nonzero" mask="url(#b)"/>
        <path d="M12.365 20.914s.487.839.922 1.861c-.052-.44-.192-1.193-.922-1.861z" fill="#E3C677" fill-rule="nonzero" mask="url(#b)"/>
        <path d="M17.274 22.426c.103-.065.308-.417.487-.505.178-.09.313-.109.473-.287.16-.187.205-.3.557-.448.492-.213.153-.487.153-.487s.083-.083.173-.148c.127-.095.275-.212.262-.416-.018-.345-.083-.844-.365-1.134.274-.057.8-.096 1.126-.179.378-.096.551-.23.551-.23s-.217-.37.135-.743c.352-.37.64-.596.852-1.013-.244-.03-.614-.16-1.561.2.07.03.147.082.147.082s-.582.161-.795.34c-.37.313-.417.57-.818.76-.404.192-.805.14-1.139.296-.334.153-.383.287-.505.344.026.031-.005.083.044.127-.03.044-.212.34-.396.34.018.07.173.121.173.121s-.113.083-.403.104c.147.152.287.32.673.564-.031.065-.16.16-.109.282.057.122.205.287.795.422-.3.013-.653.083-1.126.018-.474-.057-.552-.09-.844-.018.03.031.114.031.186.114-.078.005-.564-.057-.73.16-.174.226-.249.596-.236.845-.09.044-.178.121-.134.282.044.16.274.212.422.313.147.109.16.148.3.122.148-.031.365-.179.492-.179s.217.096.217.096.345-.166.378-.135c.031.031.006.23.04.262.033.023.421-.207.525-.272z" fill="#ECD592" fill-rule="nonzero" mask="url(#b)"/>
    </g>
</svg>
