<?xml version="1.0" encoding="UTF-8"?>
<svg width="50px" height="50px" viewBox="0 0 50 50" version="1.1" xmlns="http://www.w3.org/2000/svg"
>
    <title>Icons Crypto/Shib ERC20</title>
    <g id="Icons-Crypto/Shib-ERC20" stroke="none" stroke-width="1" fill="none" fill-rule="evenodd">
        <g id="shiba-inu-shib-logo" transform="translate(0.570511, 0.000000)">
            <g id="Group_931" transform="translate(0.000000, 1.635666)" fill-rule="nonzero">
                <path
                    d="M36.1852872,2.76586919 C34.8988162,4.05234023 33.720193,5.44665913 32.672528,6.93341907 L32.3412809,6.8255712 C30.4308329,6.20159423 28.4510542,5.81642326 26.4558685,5.68546513 C25.8550018,5.63924462 23.6133068,5.63924462 22.881482,5.68546513 C20.6706006,5.8318301 18.9758483,6.16307713 17.0499935,6.83327462 C16.9729593,6.86408829 16.9036285,6.88719855 16.8342978,6.91030881 C15.7481156,5.43125229 14.5386788,4.04463681 13.2059872,2.77357261 C19.5998253,-0.500380614 27.0798455,-0.893255001 33.7741169,1.68739048 C34.4905349,1.95701016 35.1915461,2.27285036 35.8771504,2.61180081 L36.1852872,2.76586919 Z"
                    id="Path_8573" fill="#F00500"></path>
                <path
                    d="M48.1101804,31.9849388 C47.1395495,34.7504664 45.6836033,37.315705 43.7962655,39.5496966 C42.7717107,40.7514301 41.6393081,41.853019 40.4221678,42.8544635 C37.5719027,45.1500825 34.2440255,46.7909108 30.6927492,47.6536938 C26.7640053,48.6012144 22.6657862,48.6012144 18.7370423,47.6536938 C15.1780626,46.7909108 11.8578889,45.1500825 9.0076237,42.8544635 C7.79048344,41.853019 6.65808079,40.7514301 5.63352602,39.5496966 C0.202615369,33.1327483 -1.44591637,24.3200366 1.31961118,16.3778112 C1.84344369,14.9064581 2.49823434,13.4890289 3.28398311,12.1409306 C3.64604382,11.524657 4.09284215,10.8313493 4.30853789,10.5463227 C5.04806615,13.7278349 5.95706963,16.5241762 6.29602008,17.5333241 C6.27290982,17.587248 6.24209615,17.6488754 6.21128247,17.7027993 C4.41638576,21.3388133 3.44575492,24.8438691 3.21465234,28.572324 C3.21465234,28.6185446 3.20694892,28.6724685 3.20694892,28.718689 C3.14532156,29.8356848 3.17613524,30.3672208 3.36101731,31.0682319 C3.93877376,33.2637064 5.71826363,35.6825801 8.50690144,38.0552333 C13.0750291,41.9377566 19.2685783,44.7418013 23.9599607,45.0653449 C28.851632,45.3965919 36.0697359,42.5386233 40.8766696,38.3633701 C41.6316047,37.6931726 42.3403193,36.984458 43.0028133,36.2295229 C43.4804253,35.6748767 44.1891399,34.7196527 44.135216,34.7196527 C44.1198091,34.7196527 44.135216,34.7042459 44.1660296,34.688839 C44.1891399,34.6734322 44.2122502,34.6503219 44.1968433,34.6349151 C44.1891399,34.6272117 44.2045467,34.6041014 44.227657,34.596398 C44.2507673,34.5886946 44.2661741,34.5732877 44.2584707,34.5578809 C44.2507673,34.542474 44.2584707,34.5270672 44.2892844,34.5193638 C44.3123946,34.5116604 44.320098,34.4885501 44.3123946,34.4731433 C44.3046912,34.4577364 44.3123946,34.4423296 44.3278015,34.4423296 C44.3432083,34.4423296 44.3586151,34.4192193 44.3586151,34.4038125 C44.3586151,34.3884057 44.374022,34.3652954 44.3894288,34.3652954 C44.4048357,34.3652954 44.4202425,34.3498886 44.4202425,34.3344817 C44.4433527,34.2728544 44.4818698,34.211227 44.5203869,34.1573031 C44.6359382,33.9801244 45.0981434,33.1558586 45.1597707,33.017197 C45.5988657,32.0234559 45.8761887,31.1375627 46.0071469,30.2516695 C46.0687742,29.8279814 46.1072913,29.049936 46.0764777,28.865054 C46.0687742,28.8342403 46.0687742,28.7803164 46.0610708,28.6955788 C46.045664,28.5415104 46.0379606,28.3104078 46.0225537,28.0793052 C46.0071469,27.7326513 45.9763332,27.2473359 45.9532229,27.0085299 C45.6219759,23.5111775 44.7283793,20.6532089 43.033627,17.6257651 C42.9642962,17.5102138 42.9026689,17.3946626 42.8641518,17.3022215 C42.8487449,17.2791113 42.8410415,17.256001 42.8333381,17.2405942 L42.8333381,17.2405942 C43.0721441,16.5241762 44.0504784,13.527546 44.8285237,10.0995244 L44.8439306,10.1149313 L44.9594818,10.2689996 C45.1597707,10.5386193 45.6913067,11.3397749 45.9301127,11.7249459 C47.0162948,13.4967324 47.8636709,15.3994769 48.4645377,17.3869591 C49.8588566,22.1707826 49.7433053,27.2704462 48.1101804,31.9849388 Z"
                    id="Path_8574" fill="#F00500"></path>
                <path
                    d="M38.111142,22.7793527 C38.0880318,22.9026074 37.7259711,23.2723715 37.3639104,23.5419912 C36.3008385,24.3200366 34.3980939,25.044158 32.4645356,25.3908119 C31.3629467,25.5911008 30.2613577,25.6219144 29.9301107,25.4601426 C29.7144149,25.3522948 29.6836013,25.2675571 29.7606354,24.990234 C29.9224073,24.4124776 30.4462398,23.7807972 31.2628022,23.1876339 C31.6787869,22.8872006 33.3658357,21.8626458 34.1515845,21.4312543 C35.4457589,20.7225397 36.493424,20.2988517 37.2021385,20.1987072 C37.4255377,20.1678935 37.6951574,20.1601901 37.779895,20.1987072 C37.9185566,20.2526311 38.0726249,20.6609124 38.1342523,21.1539312 C38.165066,21.4158475 38.1496591,22.5713604 38.111142,22.7793527 Z"
                    id="Path_8575" fill="#000000"></path>
                <path
                    d="M19.961886,25.3291845 C19.9156655,25.4216255 19.6845629,25.52177 19.4226467,25.5602871 C19.1607304,25.5988042 18.3595748,25.5756939 17.9050731,25.52177 C16.2719482,25.3060742 14.5386788,24.805352 13.275318,24.1890784 C12.5666034,23.8424246 12.0581778,23.4957707 11.6807102,23.1183031 L11.4650145,22.894904 L11.4419042,22.602174 C11.4033871,22.0937484 11.4110905,21.2925928 11.4727179,21.0075662 C11.511235,20.7687602 11.5959726,20.5376577 11.7115239,20.3296653 C11.7731512,20.2526311 11.7731512,20.2526311 12.0504743,20.2526311 C12.3894248,20.2526311 12.6744513,20.3065551 13.1366565,20.45292 C14.0841771,20.74565 15.4939028,21.4543646 17.2117653,22.4866228 C18.6291945,23.3339989 19.1607304,23.7499835 19.5690116,24.3200366 C19.8463347,24.6743939 20.0312168,25.1751161 19.961886,25.3291845 Z"
                    id="Path_8576" fill="#000000"></path>
                <path
                    d="M30.8699278,36.0523442 C30.8699278,36.0754545 30.7774868,36.4452186 30.6619355,36.8843135 C30.5463842,37.3234084 30.4539432,37.6777657 30.4539432,37.6931726 C30.3692056,37.700876 30.2921714,37.7085794 30.2074338,37.700876 L29.9609244,37.700876 L29.6219739,38.5020316 C29.4370918,38.9411265 29.2676166,39.3494077 29.2445064,39.4110351 L29.1982858,39.518883 L29.036514,39.2569667 L28.8747422,38.9950504 L28.8747422,36.8612033 L28.8131149,36.8766101 C28.6821567,36.9074238 27.750043,37.0306785 27.3417618,37.0691956 C25.6547129,37.2386708 23.9599607,37.2001537 22.2806153,36.9613477 C22.0109956,36.9228306 21.779893,36.892017 21.7721896,36.8997204 C21.7644862,36.9074238 21.7721896,37.4004426 21.7875964,38.0090128 L21.8107067,39.1028983 L21.6797485,39.3031872 C21.6104178,39.4110351 21.541087,39.5034761 21.541087,39.5111795 C21.5179767,39.5342898 21.4409425,39.4110351 21.2637639,39.0566778 C21.0711784,38.6869137 20.9325169,38.2940393 20.8323724,37.8857581 L20.7784485,37.6623589 L20.5396425,37.6777657 L20.3008365,37.700876 L20.2392091,37.4158495 C20.2083954,37.2617811 20.1698783,37.0229751 20.1544715,36.892017 L20.1313613,36.6455075 L19.9310723,36.4683289 C19.8155211,36.3681844 19.6999698,36.26804 19.6768595,36.2526331 C19.6383424,36.2218195 19.6229356,36.1678955 19.6229356,36.121675 L19.6229356,36.029234 L20.585863,36.0369374 L21.5487904,36.0446408 L21.5796041,36.1447853 L21.6104178,36.2449297 L21.9416648,36.2603366 C22.1265469,36.26804 22.7120067,36.2834468 23.2358393,36.2988537 L24.1987667,36.3219639 L24.4452761,35.936793 L24.6994889,35.551622 L25.0230325,35.551622 L25.0153291,34.7504664 L25.0076257,33.9493108 L24.5839376,33.7644287 C23.2204324,33.163562 22.4192768,32.4779577 22.1188434,31.6459884 C22.0572161,31.4765131 22.0572161,31.4148858 22.0418093,30.6445439 C22.0341058,29.8819053 22.0341058,29.8125746 22.0880298,29.6430993 C22.1958776,29.2579284 22.496311,28.957495 22.881482,28.8573506 C23.0124401,28.8188335 23.359094,28.8188335 25.1771009,28.8188335 L27.3186515,28.8265369 L27.5574575,28.9420882 C27.842484,29.0807497 27.9734422,29.1808942 28.135214,29.3965899 C28.320096,29.6430993 28.37402,29.8356848 28.37402,30.3055934 C28.37402,30.9757909 28.3277994,31.5535473 28.2584687,31.7846499 C28.1583242,32.1004901 28.0042558,32.4009235 27.8116704,32.6705431 C27.4264994,33.163562 26.7254882,33.6565808 26.0861044,33.87998 L25.9012224,33.9493108 L25.9089258,34.7581698 L25.9166292,35.5670288 L26.0861044,35.5824357 L26.2555796,35.5978425 L26.4866822,35.9444964 L26.7100814,36.2911502 L27.7423396,36.2911502 C28.3123926,36.2911502 28.8131149,36.2988537 28.8593354,36.3065571 C28.9363696,36.3219639 28.9517764,36.3142605 29.0288106,36.1833024 L29.1212516,36.0446408 L30.0071449,36.0446408 C30.6696389,36.0138271 30.8699278,36.029234 30.8699278,36.0523442 Z"
                    id="Path_8577" fill="#000000"></path>
                <path
                    d="M26.8025224,38.2632256 C26.6561574,38.3479632 26.556013,38.3864803 26.5329027,38.3710735 C26.5097925,38.3633701 26.4019446,38.270929 26.2863933,38.1861914 L26.078401,38.0167162 L25.8627053,38.2478188 C25.3927967,38.7562444 25.3773898,38.7793547 25.2387283,38.7870581 C25.0230325,38.8101684 24.976812,38.7716513 24.7148958,38.3787769 C24.5762342,38.178488 24.4683863,38.0090128 24.4683863,38.0090128 C24.4683863,38.0090128 24.3682419,37.9936059 24.2526906,37.9859025 L24.0369949,37.9627922 L23.9368504,38.1707846 L23.836706,38.3787769 L23.6595273,38.324853 C23.5208658,38.2786324 23.3822042,38.2247085 23.2512461,38.1630811 L23.0201435,38.0475299 L23.0201435,37.608435 L25.0692531,37.6161384 L27.1183626,37.6238418 L27.126066,37.8318341 C27.1337694,38.0783435 27.1414729,38.0706401 26.8025224,38.2632256 Z"
                    id="Path_8578" fill="#000000"></path>
      </g>
      <path d="M46.0610708,30.5007197 C46.0533674,30.4699061 46.0533674,30.4159821 46.045664,30.3312445 C44.1968433,30.1309556 38.9200011,30.0077009 34.0206264,34.0519961 C34.0206264,34.0519961 32.4414254,26.8107819 25.0461428,26.8107819 C17.6508602,26.8107819 14.9084429,34.0519961 14.9084429,34.0519961 C10.7640033,29.5917163 5.21754137,29.9152599 3.21465234,30.2079898 C3.21465234,30.2542103 3.20694892,30.3081343 3.20694892,30.3543548 C3.14532156,31.4713506 3.17613524,32.0028865 3.36101731,32.7038977 C3.93877376,34.8993722 5.71826363,37.3182459 8.50690144,39.690899 C13.0750291,43.5734224 19.2685783,46.377467 23.9599607,46.7010107 C28.851632,47.0322577 36.0697359,44.1742891 40.8766696,39.9990358 C41.6316047,39.3288383 42.3403193,38.6201238 43.0028133,37.8651887 C43.4804253,37.3105425 44.1891399,36.3553185 44.135216,36.3553185 C44.1198091,36.3553185 44.135216,36.3399116 44.1660296,36.3245048 C44.1891399,36.3090979 44.2122502,36.2859877 44.1968433,36.2705808 C44.1891399,36.2628774 44.2045467,36.2397672 44.227657,36.2320638 C44.2507673,36.2243603 44.2661741,36.2089535 44.2584707,36.1935467 C44.2507673,36.1781398 44.2584707,36.162733 44.2892844,36.1550296 C44.3123946,36.1473261 44.320098,36.1242159 44.3123946,36.108809 C44.3046912,36.0934022 44.3123946,36.0779954 44.3278015,36.0779954 C44.3432083,36.0779954 44.3586151,36.0548851 44.3586151,36.0394783 C44.3586151,36.0240714 44.374022,36.0009612 44.3894288,36.0009612 C44.4048357,36.0009612 44.4202425,35.9855543 44.4202425,35.9701475 C44.4433527,35.9085201 44.4818698,35.8468928 44.5203869,35.7929688 C44.6359382,35.6157902 45.0981434,34.7915243 45.1597707,34.6528628 C45.5988657,33.6591217 45.8761887,32.7732285 46.0071469,31.8873352 C46.0533674,31.4636472 46.0918845,30.6856018 46.0610708,30.5007197 Z M26.8025224,39.8988914 C26.6561574,39.983629 26.556013,40.0221461 26.5329027,40.0067392 C26.5097925,39.9990358 26.4019446,39.9065948 26.2863933,39.8218572 L26.078401,39.6523819 L25.8627053,39.8834845 C25.3927967,40.3919102 25.3773898,40.4150205 25.2387283,40.4227239 C25.0230325,40.4458341 24.976812,40.407317 24.7148958,40.0144427 C24.5762342,39.8141538 24.4683863,39.6446785 24.4683863,39.6446785 C24.4683863,39.6446785 24.3682419,39.6292717 24.2526906,39.6215683 L24.0369949,39.598458 L23.9368504,39.8064503 L23.836706,40.0144427 L23.6595273,39.9605187 C23.5208658,39.9142982 23.3822042,39.8603743 23.2512461,39.7987469 L23.0201435,39.6831956 L23.0201435,39.2441007 L25.0692531,39.2518041 L27.1183626,39.2595076 L27.126066,39.4674999 C27.1337694,39.7140093 27.1414729,39.7063059 26.8025224,39.8988914 Z M30.6542321,38.5122759 C30.5386808,38.9513708 30.4462398,39.3057281 30.4462398,39.3211349 C30.3615022,39.3288383 30.284468,39.3365418 30.1997304,39.3288383 L29.9532209,39.3288383 L29.6219739,40.1376974 C29.4370918,40.5767923 29.2676166,40.9850735 29.2445064,41.0467009 L29.1982858,41.1545487 L29.036514,40.8926325 L28.8747422,40.6307162 L28.8747422,38.496869 L28.8131149,38.5122759 C28.6821567,38.5430896 27.750043,38.6663443 27.3417618,38.7048614 C25.6547129,38.8743366 23.9599607,38.8358195 22.2806153,38.5970135 C22.0109956,38.5584964 21.779893,38.5276827 21.7721896,38.5353861 C21.7644862,38.5430896 21.7721896,39.0361084 21.7875964,39.6446785 L21.8107067,40.7385641 L21.6797485,40.938853 C21.6104178,41.0467009 21.541087,41.1391419 21.541087,41.1468453 C21.5179767,41.1699556 21.4409425,41.0467009 21.2637639,40.6923436 C21.0711784,40.3225794 20.9325169,39.929705 20.8323724,39.5214238 L20.7784485,39.2980247 L20.5396425,39.3134315 L20.3008365,39.3365418 L20.2392091,39.0515152 C20.2083954,38.8974468 20.1698783,38.6586408 20.1544715,38.5276827 L20.1313613,38.2811733 L19.9310723,38.1039947 C19.8155211,38.0038502 19.6999698,37.9037058 19.6768595,37.8882989 C19.6383424,37.8574852 19.6229356,37.8035613 19.6229356,37.7573408 L19.6229356,37.6648998 L20.585863,37.6726032 L21.5487904,37.6803066 L21.5796041,37.780451 L21.6104178,37.8805955 L21.9416648,37.8960023 C22.1265469,37.9037058 22.7120067,37.9191126 23.2358393,37.9345194 L24.1987667,37.9576297 L24.4452761,37.5724587 L24.6994889,37.1872878 L25.0230325,37.1872878 L25.0153291,36.3861321 L25.0076257,35.5849765 L24.5839376,35.4000945 C23.2204324,34.7992278 22.4192768,34.1136234 22.1188434,33.2816541 C22.0572161,33.1121789 22.0572161,33.0505516 22.0418093,32.2802096 C22.0341058,31.5175711 22.0341058,31.4482403 22.0880298,31.2787651 C22.1958776,30.8935941 22.496311,30.5931608 22.881482,30.4930163 C23.0124401,30.4544992 23.359094,30.4544992 25.1771009,30.4544992 L27.3186515,30.4622027 L27.5574575,30.5777539 C27.842484,30.7164155 27.9734422,30.8165599 28.135214,31.0322557 C28.320096,31.2787651 28.37402,31.4713506 28.37402,31.9412592 C28.37402,32.6114567 28.3277994,33.1892131 28.2584687,33.4203157 C28.1583242,33.7361559 28.0042558,34.0365892 27.8116704,34.3062089 C27.4264994,34.7992278 26.7254882,35.2922466 26.0861044,35.5156458 L25.9012224,35.5849765 L25.9089258,36.3938356 L25.9166292,37.2026946 L26.0861044,37.2181014 L26.2555796,37.2335083 L26.4866822,37.5801621 L26.7100814,37.926816 L27.7423396,37.926816 C28.3123926,37.926816 28.8131149,37.9345194 28.8593354,37.9422228 C28.9363696,37.9576297 28.9517764,37.9499263 29.0288106,37.8189681 L29.1212516,37.6803066 L30.0071449,37.6803066 C30.6927492,37.6803066 30.8930381,37.68801 30.8930381,37.7111203 C30.8699278,37.7034168 30.7697834,38.0808844 30.6542321,38.5122759 Z" id="Path_8579" fill="#FFFFFF" fill-rule="nonzero"></path>
      <path d="M3.1992455,30.2079898 C2.71393008,30.2773206 2.42890356,30.3543548 2.42890356,30.3543548" id="Path_8580"></path>
      <path d="M46.7312683,30.431389 C46.7312683,30.431389 46.4847589,30.377465 46.045664,30.3312445" id="Path_8581"></path>
      <path d="M45.9994435,29.714971 C45.9840366,29.3683171 45.9532229,28.8830017 45.9301127,28.6441957 C45.5988657,25.1468433 44.705269,22.2888747 43.0105167,19.2614309 C42.941186,19.1458796 42.8795586,19.0303283 42.8410415,18.9378873 C42.8256347,18.914777 42.8179313,18.8916668 42.8102278,18.8762599 L42.8102278,18.8762599 C43.0490338,18.1598419 44.0273681,15.1632118 44.8054135,11.7351902 C45.8607819,7.0823249 46.5309794,1.64371083 44.4818698,0.0105859261 C44.4818698,0.0105859261 40.9382969,-0.251330332 36.1929906,4.40153496 C34.9065196,5.68800599 33.7278964,7.0823249 32.6802314,8.56908483 L32.3489844,8.46123696 C30.4385364,7.83725999 28.4587576,7.45208903 26.463572,7.3211309 C25.8627053,7.27491038 23.6210102,7.27491038 22.8891854,7.3211309 C20.678304,7.46749587 18.9835518,7.7987429 17.0576969,8.46894038 C16.9806627,8.49975406 16.911332,8.52286432 16.8420012,8.54597458 C15.7558191,7.06691806 14.5463822,5.68030257 13.2136907,4.40923838 C8.27579886,-0.266737171 4.60126782,0.00288250671 4.60126782,0.00288250671 C2.42890356,1.68993135 3.16843182,7.37505483 4.29313105,12.1819885 C5.03265931,15.3635007 5.94166279,18.1598419 6.28061324,19.1689899 C6.25750299,19.2229138 6.22668931,19.2845412 6.19587563,19.3384651 C4.40097892,22.974479 3.43034808,26.4795348 3.1992455,30.2079898 C5.20983795,29.9152599 10.7485965,29.5840128 14.9007395,34.0519961 C14.9007395,34.0519961 17.6431568,26.8107819 25.0384394,26.8107819 C32.433722,26.8107819 34.0129229,34.0519961 34.0129229,34.0519961 C38.9122976,30.0077009 44.1891399,30.138659 46.0379606,30.3312445 C46.0302571,30.1771761 46.0148503,29.9460736 45.9994435,29.714971 Z M7.7365595,16.2648008 C7.7365595,16.2648008 4.85548066,9.06210367 5.59500892,4.94847774 C5.59500892,4.94847774 5.59500892,4.94847774 5.59500892,4.94847774 C5.71826363,4.25516999 5.94936621,3.64659986 6.31142692,3.1843947 C6.31142692,3.1843947 9.57767673,3.50793831 14.8468156,9.36253703 C14.8468156,9.36253703 13.8453711,9.84785245 12.5049761,10.8801106 C12.5049761,10.8801106 12.4972727,10.8878141 12.4895692,10.8878141 C11.033623,12.0048099 9.1693955,13.7765963 7.7365595,16.2648008 L7.7365595,16.2648008 Z M19.961886,26.9648503 C19.9156655,27.0572913 19.6845629,27.1574357 19.4226467,27.1959528 C19.1607304,27.2344699 18.3595748,27.2113597 17.9050731,27.1574357 C16.2719482,26.94174 14.5386788,26.4410177 13.275318,25.8247442 C12.5666034,25.4780903 12.0581778,25.1314365 11.6807102,24.7539689 L11.4650145,24.5305697 L11.4419042,24.2378398 C11.4033871,23.7294141 11.4110905,22.9282585 11.4727179,22.643232 C11.511235,22.404426 11.5959726,22.1733234 11.7115239,21.9653311 C11.7731512,21.8882969 11.7731512,21.8882969 12.0504743,21.8882969 C12.3894248,21.8882969 12.6744513,21.9422208 13.1366565,22.0885858 C14.0841771,22.3813157 15.4939028,23.0900303 17.2117653,24.1222885 C18.6291945,24.9696646 19.1607304,25.3856493 19.5690116,25.9557023 C19.8463347,26.3100596 20.0312168,26.8107819 19.961886,26.9648503 Z M38.111142,24.4150185 C38.0880318,24.5382732 37.7259711,24.9080373 37.3639104,25.177657 C36.3008385,25.9557023 34.3980939,26.6798237 32.4645356,27.0264776 C31.3629467,27.2267665 30.2613577,27.2575802 29.9301107,27.0958084 C29.7144149,26.9879605 29.6836013,26.9032229 29.7606354,26.6258998 C29.9224073,26.0481434 30.4462398,25.416463 31.2628022,24.8232997 C31.6787869,24.5228663 33.3658357,23.4983116 34.1515845,23.0669201 C35.4457589,22.3582055 36.493424,21.9345174 37.2021385,21.834373 C37.4255377,21.8035593 37.6951574,21.7958559 37.779895,21.834373 C37.9185566,21.8882969 38.0726249,22.2965781 38.1342523,22.789597 C38.165066,23.0515132 38.1496591,24.2070261 38.111142,24.4150185 Z M36.8323744,10.8801106 L36.8169676,10.8724072 C35.5227931,9.84014903 34.5521623,9.35483361 34.5521623,9.35483361 C39.6441225,3.5002349 42.794821,3.17669128 42.794821,3.17669128 C43.1414749,3.64659986 43.364874,4.24746657 43.4881287,4.94077432 C43.4881287,4.94077432 43.4881287,4.94077432 43.4881287,4.94077432 C44.2045467,9.05440025 41.4236124,16.2648008 41.4236124,16.2648008 C40.260396,14.192581 38.6966019,12.3591672 36.8323744,10.8801106 L36.8323744,10.8801106 Z" id="Path_8582" fill="#FFA409" fill-rule="nonzero"></path>
      <path d="M32.6897523,8.5725297 C32.6697523,8.5925297 32.6597523,8.6225297 32.6397523,8.6425297" id="Path_8583"></path>
      <path d="M42.8220454,18.8685565 C42.7720454,18.9764044 42.7520454,19.0303283 42.7520454,19.0303283" id="Path_8584"></path>
      <g id="Group_934" transform="translate(34.552162, 3.176691)" fill-rule="nonzero">
        <g id="Group_933">
          <g id="Group_932" fill="#FF9300">
            <path d="M8.94366988,1.76408303 C8.34280317,1.68704884 5.50024142,1.671642 2.28021213,7.70341936 L2.26480529,7.69571594 C0.970630839,6.66345775 1.75155477e-14,6.17814233 1.75155477e-14,6.17814233 C5.0919602,0.323543613 8.24265871,0 8.24265871,0 C8.597016,0.469908581 8.82041517,1.07077529 8.94366988,1.76408303 Z" id="Path_8585"></path>
          </g>
          <path d="M6.87915349,13.0881095 C5.70823374,11.0081863 4.15214303,9.18247588 2.28021213,7.70341936 C5.50024142,1.671642 8.33509975,1.68704884 8.94366988,1.76408303 C8.94366988,1.76408303 8.94366988,1.76408303 8.94366988,1.76408303 C9.66008788,5.88541239 6.87915349,13.0881095 6.87915349,13.0881095 Z" id="Path_8586" fill="#FF8300"></path>
          <path d="M9.05922117,1.80212107 C9.02070407,1.79212107 8.98218697,1.78212107 8.94366988,1.77212107 L9.05922117,1.80212107 Z" id="Path_8587" fill="#FF8300"></path>
        </g>
      </g>
      <path d="M17.0731038,8.86951819 C16.9960696,8.76167032 16.911332,8.65382245 16.8342978,8.54597458" id="Path_8588"></path>
      <path d="M6.28061324,19.1689899 C6.36535086,19.4309061 6.41927479,19.5695677 6.41927479,19.5695677" id="Path_8589"></path>
      <g id="Group_937" transform="translate(5.471754, 3.176691)" fill-rule="nonzero">
        <g id="Group_936">
          <g id="Group_935" transform="translate(0.115551, 0.000000)" fill="#FF9300">
            <path d="M9.25951007,6.17814233 C9.25951007,6.17814233 8.25806555,6.66345775 6.91767058,7.69571594 C6.91767058,7.69571594 6.90996716,7.70341936 6.90226375,7.70341936 C3.56668316,1.66393858 0.631680387,1.68704884 0,1.76408303 C0.12325471,1.07077529 0.354357291,0.462205162 0.716418,0 C0.72412142,0 3.99037123,0.323543613 9.25951007,6.17814233 Z" id="Path_8590"></path>
          </g>
          <path d="M7.02551846,7.70341936 C5.56186878,8.82811859 3.69764129,10.5922016 2.26480529,13.0881095 C2.26480529,13.0881095 -0.616273549,5.88541239 0.12325471,1.76408303 C0.12325471,1.76408303 0.12325471,1.76408303 0.12325471,1.76408303 C0.747231678,1.68704884 3.68993787,1.671642 7.02551846,7.70341936 Z" id="Path_8591" fill="#FF8300"></path>
          <path d="M0.12325471,1.77212107 C0.0847376129,1.78212107 0.0385170968,1.79212107 0,1.80212107 L0.12325471,1.77212107 Z" id="Path_8592" fill="#FF8300"></path>
        </g>
      </g>
      <path d="M33.6354554,20.2628754 C33.6354554,20.2628754 31.1703612,20.4169438 31.478498,18.491089 C31.7866347,16.5652341 33.7124896,16.3341315 34.2517289,16.4111657 C34.7909683,16.4881999 36.9479257,17.2585419 36.5627547,18.8762599 C36.1775838,20.493978 35.6383444,20.1858412 35.3302076,20.2628754 C35.0220709,20.3399096 33.6354554,20.2628754 33.6354554,20.2628754 Z" id="Path_8593" fill="#FFFFFF" fill-rule="nonzero"></path>
      <path d="M15.4553857,20.2628754 C15.4553857,20.2628754 12.9902915,20.4169438 13.2984283,18.491089 C13.6065651,16.5652341 15.5324199,16.3341315 16.0716592,16.4111657 C16.6108986,16.4881999 18.767856,17.2585419 18.3826851,18.8762599 C17.9975141,20.493978 17.4582747,20.1858412 17.150138,20.2628754 C16.8420012,20.3399096 15.4553857,20.2628754 15.4553857,20.2628754 Z" id="Path_8594" fill="#FFFFFF" fill-rule="nonzero"></path>
    </g>
    <g id="ERC20" transform="translate(30.000000, 0.000000)">
      <circle id="Oval" fill="#2B2D31" cx="10" cy="10" r="10"></circle>
      <path d="M14.1299449,10.8435355 L10.188772,16.25 L6.25,10.8434755 L10.188772,13.1102335 L14.1299449,10.8435355 Z M10.2278639,3.75 L14.1666667,10.1159434 L10.2278639,12.3837808 L10.213,12.369 L10.188772,12.3837808 L6.25,10.1159434 L10.1888028,3.75 L10.188,3.879 L10.2278639,3.75 Z" id="Combined-Shape" fill="#FFFFFF" fill-rule="nonzero"></path>
    </g>
  </g>
</svg>