<?xml version="1.0" encoding="UTF-8"?>
<svg width="50px" height="50px" viewBox="0 0 50 50" version="1.1" xmlns="http://www.w3.org/2000/svg"
>
    <title>Group</title>
    <defs>
        <linearGradient x1="100%" y1="2.08166817e-14%" x2="1.76941795e-13%" y2="100%" id="linearGradient-1">
            <stop stop-color="#0BF3A8" offset="0%"></stop>
            <stop stop-color="#6F8FD1" offset="50.1557037%"></stop>
            <stop stop-color="#DA21FE" offset="100%"></stop>
        </linearGradient>
    </defs>
    <g id="Symbols" stroke="none" stroke-width="1" fill="none" fill-rule="evenodd">
        <g id="Group">
            <path
                d="M25,0 C38.807095,0 50,11.192905 50,25 C50,38.807095 38.807095,50 25,50 C11.192905,50 0,38.807095 0,25 C0,11.192905 11.192905,0 25,0"
                id="Combined-Shape" fill="url(#linearGradient-1)"></path>
            <path
                d="M14.0365146,31.3176131 C14.2235713,31.13282 14.4807743,31.0250241 14.7535654,31.0250241 L39.4918169,31.0250241 C39.9438706,31.0250241 40.1698975,31.5640038 39.8503423,31.879692 L34.9634854,36.707411 C34.7764287,36.892204 34.5192257,37 34.2464346,37 L9.5081831,37 C9.05612935,37 8.83010248,36.4610202 9.14965771,36.1453321 L14.0365146,31.3176131 Z M14.0365146,13.292589 C14.2313653,13.107796 14.4885683,13 14.7535654,13 L39.4918169,13 C39.9438706,13 40.1698975,13.5389798 39.8503423,13.8546679 L34.9634854,18.6823869 C34.7764287,18.86718 34.5192257,18.9749759 34.2464346,18.9749759 L9.5081831,18.9749759 C9.05612935,18.9749759 8.83010248,18.4359962 9.14965771,18.120308 L14.0365146,13.292589 Z M34.9634854,22.2473532 C34.7764287,22.0625602 34.5192257,21.9547642 34.2464346,21.9547642 L9.5081831,21.9547642 C9.05612935,21.9547642 8.83010248,22.493744 9.14965771,22.8094321 L14.0365146,27.6371511 C14.2235713,27.8219442 14.4807743,27.9297401 14.7535654,27.9297401 L39.4918169,27.9297401 C39.9438706,27.9297401 40.1698975,27.3907603 39.8503423,27.0750722 L34.9634854,22.2473532 Z"
                id="Combined-Shape" fill="#F5F6FA" fill-rule="nonzero"></path>
        </g>
    </g>
</svg>