<?xml version="1.0" encoding="UTF-8"?>
<svg width="50px" height="50px" viewBox="0 0 50 50" version="1.1" xmlns="http://www.w3.org/2000/svg" xmlns:xlink="http://www.w3.org/1999/xlink">
  <g id="Icons-Crypto/TrueUSD-ERC20" stroke="none" stroke-width="1" fill="none" fill-rule="evenodd">
    <g id="TUSD" fill-rule="nonzero">
      <path d="M25,50 L25,50 C11.25,50 0,38.75 0,25 L0,25 C0,11.25 11.25,0 25,0 L25,0 C38.75,0 50,11.25 50,25 L50,25 C50,38.75 38.75,50 25,50 Z" id="Coin_BG" fill="#002868"></path>
      <path d="M37.6,40 L12.4,40 C11.08,40 10,38.92 10,37.6 L10,12.4 C10,11.08 11.08,10 12.4,10 L37.6,10 C38.92,10 40,11.08 40,12.4 L40,37.6 C40,38.92 38.92,40 37.6,40 Z" id="BG_1_" fill="#FFFFFF"></path>
      <g id="Group" transform="translate(13.994000, 31.511000)" fill="#002868">
        <path d="M1.86,5.469 C1.781,5.469 1.717,5.397 1.717,5.318 L1.717,1.287 C1.717,1.208 1.653,1.136 1.574,1.136 L0.151,1.136 C0.071,1.136 0,1.072 0,0.993 L0,0.214 C0,0.135 0.072,0.063 0.151,0.063 L4.531,0.063 C4.61,0.063 4.682,0.134 4.682,0.214 L4.682,0.993 C4.682,1.072 4.61,1.136 4.531,1.136 L3.116,1.136 C3.037,1.136 2.965,1.207 2.965,1.287 L2.965,5.318 C2.965,5.397 2.901,5.469 2.822,5.469 L1.86,5.469 Z" id="Path"></path>
        <path d="M9.054,0.214 C9.054,0.135 9.118,0.063 9.197,0.063 L10.151,0.063 C10.23,0.063 10.302,0.134 10.302,0.214 L10.302,2.965 C10.302,4.595 9.38,5.541 7.917,5.541 C6.462,5.541 5.548,4.595 5.548,2.965 L5.548,0.214 C5.548,0.135 5.612,0.063 5.691,0.063 L6.645,0.063 C6.724,0.063 6.796,0.134 6.796,0.214 L6.796,3.004 C6.796,3.807 7.209,4.379 7.925,4.379 C8.641,4.379 9.054,3.807 9.054,3.004 L9.054,0.214 L9.054,0.214 Z" id="Path"></path>
        <path d="M14.683,1.828 C14.556,1.828 14.516,1.78 14.468,1.685 C14.301,1.295 13.935,1.049 13.379,1.049 C12.878,1.049 12.457,1.224 12.457,1.558 C12.457,1.924 12.847,2.075 13.705,2.178 C15.009,2.329 15.756,2.727 15.756,3.76 C15.756,4.921 14.738,5.533 13.435,5.533 C12.306,5.533 11.336,4.984 11.185,3.832 C11.169,3.721 11.225,3.681 11.336,3.681 L12.211,3.681 C12.322,3.681 12.386,3.729 12.418,3.816 C12.537,4.198 12.943,4.492 13.531,4.492 C14.048,4.492 14.501,4.301 14.501,3.896 C14.501,3.411 14.024,3.324 13.07,3.204 C11.973,3.061 11.21,2.743 11.21,1.733 C11.21,0.723 12.077,0 13.436,0 C14.66,0 15.511,0.66 15.686,1.646 C15.71,1.757 15.678,1.829 15.559,1.829 L14.683,1.829 L14.683,1.828 Z" id="Path"></path>
        <path d="M16.837,5.469 C16.758,5.469 16.694,5.397 16.694,5.318 L16.694,0.214 C16.694,0.135 16.758,0.063 16.837,0.063 L18.999,0.063 C20.605,0.063 21.853,1.168 21.853,2.782 C21.853,4.372 20.621,5.469 18.999,5.469 L16.837,5.469 Z M18.999,4.395 C19.866,4.395 20.541,3.711 20.541,2.765 C20.541,1.819 19.865,1.135 18.991,1.135 L18.093,1.135 C18.014,1.135 17.95,1.206 17.95,1.286 L17.95,4.251 C17.95,4.33 18.014,4.394 18.093,4.394 L18.999,4.394 L18.999,4.395 Z" id="Shape"></path>
      </g>
      <path d="M39.2,28.6 L10.8,28.6 C10.58,28.6 10.4,28.42 10.4,28.2 L10.4,12.4 C10.4,11.3 11.3,10.4 12.4,10.4 L37.6,10.4 C38.7,10.4 39.6,11.3 39.6,12.4 L39.6,28.2 C39.6,28.42 39.42,28.6 39.2,28.6 Z" id="BG" fill="#002868"></path>
      <path d="M26.473,25.356 L23.873,25.356 C23.708,25.356 23.573,25.221 23.573,25.056 L23.573,14.056 C23.573,13.891 23.708,13.756 23.873,13.756 L26.473,13.756 C26.638,13.756 26.773,13.891 26.773,14.056 L26.773,25.056 C26.773,25.221 26.638,25.356 26.473,25.356 Z" id="_x7C_" fill="#FFFFFF"></path>
      <path d="M30.9,16.956 L19.1,16.956 C18.935,16.956 18.8,16.821 18.8,16.656 L18.8,14.056 C18.8,13.891 18.935,13.756 19.1,13.756 L30.9,13.756 C31.065,13.756 31.2,13.891 31.2,14.056 L31.2,16.656 C31.2,16.821 31.065,16.956 30.9,16.956 Z" id="_x2014_" fill="#FFFFFF"></path>
    </g>
    <g id="ERC20" transform="translate(30.000000, 0.000000)">
      <circle id="Oval" fill="#2B2D31" cx="10" cy="10" r="10"></circle>
      <path d="M14.1299449,10.8435355 L10.188772,16.25 L6.25,10.8434755 L10.188772,13.1102335 L14.1299449,10.8435355 Z M10.2278639,3.75 L14.1666667,10.1159434 L10.2278639,12.3837808 L10.213,12.369 L10.188772,12.3837808 L6.25,10.1159434 L10.1888028,3.75 L10.188,3.879 L10.2278639,3.75 Z" id="Combined-Shape" fill="#FFFFFF" fill-rule="nonzero"></path>
    </g>
  </g>
</svg>
