<?xml version="1.0" encoding="UTF-8"?>
<svg width="50px" height="50px" viewBox="0 0 50 50" version="1.1" xmlns="http://www.w3.org/2000/svg" xmlns:xlink="http://www.w3.org/1999/xlink">
  <title>Icons Crypto/USD Coin ERC20</title>
  <g id="Icons-Crypto/USD-Coin-ERC20" stroke="none" stroke-width="1" fill="none" fill-rule="evenodd">
    <g id="USDC" fill-rule="nonzero">
      <path d="M25,50 C38.85425,50 50,38.85425 50,25 C50,11.14575 38.85425,0 25,0 C11.14575,0 0,11.14575 0,25 C0,38.85425 11.14575,50 25,50 Z" id="Path" fill="#2775CA"></path>
      <path d="M31.875,28.95825 C31.875,25.3125 29.6875,24.0625 25.3125,23.54175 C22.1875,23.125 21.5625,22.29175 21.5625,20.83325 C21.5625,19.37475 22.60425,18.4375 24.6875,18.4375 C26.5625,18.4375 27.60425,19.0625 28.125,20.625 C28.22925,20.9375 28.54175,21.14575 28.85425,21.14575 L30.52075,21.14575 C30.9375,21.14575 31.25,20.83325 31.25,20.41675 L31.25,20.3125 C30.83325,18.02075 28.95825,16.25 26.5625,16.04175 L26.5625,13.54175 C26.5625,13.125 26.25,12.8125 25.72925,12.70825 L24.16675,12.70825 C23.75,12.70825 23.4375,13.02075 23.33325,13.54175 L23.33325,15.9375 C20.20825,16.35425 18.22925,18.4375 18.22925,21.04175 C18.22925,24.47925 20.3125,25.83325 24.6875,26.35425 C27.60425,26.875 28.54175,27.5 28.54175,29.16675 C28.54175,30.8335 27.08325,31.97925 25.10425,31.97925 C22.39575,31.97925 21.45825,30.83325 21.14575,29.27075 C21.04175,28.85425 20.72925,28.64575 20.41675,28.64575 L18.64575,28.64575 C18.22925,28.64575 17.91675,28.95825 17.91675,29.375 L17.91675,29.47925 C18.33325,32.08325 20,33.95825 23.4375,34.47925 L23.4375,36.97925 C23.4375,37.39575 23.75,37.70825 24.27075,37.8125 L25.83325,37.8125 C26.25,37.8125 26.5625,37.5 26.66675,36.97925 L26.66675,34.47925 C29.79175,33.95825 31.875,31.77075 31.875,28.95825 L31.875,28.95825 Z" id="Path" fill="#FFFFFF"></path>
      <path d="M19.6875,39.89575 C11.5625,36.97925 7.39575,27.91675 10.41675,19.89575 C11.97925,15.52075 15.41675,12.1875 19.6875,10.625 C20.10425,10.41675 20.3125,10.10425 20.3125,9.58325 L20.3125,8.125 C20.3125,7.70825 20.10425,7.39575 19.6875,7.29175 C19.58325,7.29175 19.375,7.29175 19.27075,7.39575 C9.375,10.52075 3.95825,21.04175 7.08325,30.9375 C8.95825,36.77075 13.4375,41.25 19.27075,43.125 C19.6875,43.33325 20.10425,43.125 20.20825,42.70825 C20.3125,42.60425 20.3125,42.5 20.3125,42.29175 L20.3125,40.83325 C20.3125,40.52075 20,40.10425 19.6875,39.89575 Z M30.72925,7.39575 C30.3125,7.1875 29.89575,7.39575 29.79175,7.8125 C29.6875,7.91675 29.6875,8.02075 29.6875,8.22925 L29.6875,9.6875 C29.6875,10.10425 30,10.52075 30.3125,10.72925 C38.4375,13.64575 42.60425,22.70825 39.58325,30.72925 C38.02075,35.10425 34.58325,38.4375 30.3125,40 C29.89575,40.20825 29.6875,40.52075 29.6875,41.04175 L29.6875,42.5 C29.6875,42.91675 29.89575,43.22925 30.3125,43.33325 C30.41675,43.33325 30.625,43.33325 30.72925,43.22925 C40.625,40.10425 46.04175,29.58325 42.91675,19.6875 C41.04175,13.75 36.45825,9.27075 30.72925,7.39575 Z" id="Shape" fill="#FFFFFF"></path>
    </g>
    <g id="ERC20" transform="translate(30.000000, 0.000000)">
      <circle id="Oval" fill="#2B2D31" cx="10" cy="10" r="10"></circle>
      <path d="M14.1299449,10.8435355 L10.188772,16.25 L6.25,10.8434755 L10.188772,13.1102335 L14.1299449,10.8435355 Z M10.2278639,3.75 L14.1666667,10.1159434 L10.2278639,12.3837808 L10.213,12.369 L10.188772,12.3837808 L6.25,10.1159434 L10.1888028,3.75 L10.188,3.879 L10.2278639,3.75 Z" id="Combined-Shape" fill="#FFFFFF" fill-rule="nonzero"></path>
    </g>
  </g>
</svg>